<?xml version="1.0" encoding="UTF-8" standalone="no"?>
<svg
   width="958"
   height="474"
   viewBox="0 60 958 474"
   aria-hidden="true"
   class="iconify iconify--fxemoji"
   version="1.1"
   id="svg874"
   sodipodi:docname="banner.svg"
   inkscape:version="1.1.1 (c3084ef, 2021-09-22)"
   xmlns:inkscape="http://www.inkscape.org/namespaces/inkscape"
   xmlns:sodipodi="http://sodipodi.sourceforge.net/DTD/sodipodi-0.dtd"
   xmlns="http://www.w3.org/2000/svg"
   xmlns:svg="http://www.w3.org/2000/svg">
  <defs
     id="defs878" />
  <sodipodi:namedview
     id="namedview876"
     pagecolor="#ffffff"
     bordercolor="#666666"
     borderopacity="1.0"
     inkscape:pageshadow="2"
     inkscape:pageopacity="0.0"
     inkscape:pagecheckerboard="0"
     showgrid="false"
     inkscape:zoom="0.76544774"
     inkscape:cx="491.86898"
     inkscape:cy="449.41017"
     inkscape:window-width="1920"
     inkscape:window-height="1080"
     inkscape:window-x="0"
     inkscape:window-y="0"
     inkscape:window-maximized="0"
     inkscape:current-layer="g967" />
  <g
     id="g1063"
     transform="matrix(-0.91079683,0,0,0.90268725,939.2063,69.042886)" />
  <g
     id="g967"
     transform="matrix(0.97412048,0,0,0.96544708,-8.156959,56.932666)"
     style="stroke:none">
    <path
       fill="#5f65b2"
       d="M 487.60867,3.1771125 H 20.373665 c -6.6,0 -11.9999996,5.4 -11.9999996,12.0000005 V 482.41111 c 0,6.6 5.3999996,12 11.9999996,12 H 487.60767 c 6.6,0 12,-5.4 12,-12 V 15.177113 c 0.001,-6.6000005 -5.399,-12.0000005 -11.999,-12.0000005 z"
       id="path860"
       style="stroke:none" />
    <path
       fill="#5f65b2"
       d="m 978.30766,3.1771125 h -467.235 c -6.59999,0 -11.99999,5.4 -11.99999,12.0000005 V 482.41111 c 0,6.6 5.4,12 11.99999,12 h 467.234 c 6.6,0 12,-5.4 12,-12 V 15.177113 c 0,-6.6000005 -5.399,-12.0000005 -11.999,-12.0000005 z"
       id="path1868"
       style="stroke:none" />
    <path
       fill="#8280d8"
       d="m 487.60867,3.1771125 h -231.438 a 202.203,202.203 0 0 1 -12.238,10.8800005 c -23.164,18.991 -37.945,47.829 -37.945,80.12 0,0.881 0.011,1.759 0.033,2.635 a 15.253,15.253 0 0 1 -15.767,15.696997 94.765,94.765 0 0 0 -2.974,-0.046 c -25.083,0 -47.876,9.796 -64.766,25.771 -11.403,10.784 -28.374005,13.309 -42.341005,6.149 -21.533,-11.039 -45.938,-17.265 -71.7989996,-17.265 v 315.258 c 74.6139996,0 137.1100046,-51.844 153.4520046,-121.474 2.752,-11.727 13.182,-19.897 25.228,-19.868 h 0.226 c 37.339,0 69.605,-21.706 84.874,-53.189 6.18,-12.742 22.812,-15.95 33.346,-6.484 35.03,31.479 81.354,50.635 132.158,50.635 21.639,0 42.462,-3.483 61.951,-9.904 V 15.177113 c 0,-6.6000005 -5.4,-12.0000005 -12,-12.0000005 z"
       id="path862"
       style="stroke:none" />
    <path
       fill="#5f65b2"
       d="m 58.389665,311.88111 a 7.4445,7.4445 0 1 1 0,-14.889 7.4445,7.4445 0 0 1 0,14.889 z m 177.162005,-53.566 c -9.776,0 -17.701,-7.925 -17.701,-17.701 0,-9.776 7.925,-17.701 17.701,-17.701 9.776,0 17.701,7.925 17.701,17.701 0,9.776 -7.925,17.701 -17.701,17.701 z m 72.977,-114.324 c -7.484,0 -13.55,-6.067 -13.55,-13.55 0,-7.483 6.067,-13.55 13.55,-13.55 7.483,0 13.55,6.067 13.55,13.55 0,7.484 -6.067,13.55 -13.55,13.55 z m 134.077,7.738 c -13.595,0 -24.616,-11.021 -24.616,-24.616 0,-13.595 11.021,-24.616 24.616,-24.616 13.595,0 24.616,11.021 24.616,24.616 -0.001,13.595 -11.021,24.616 -24.616,24.616 z"
       id="path864"
       style="stroke:none" />
    <path
       fill="#2b3b47"
       d="M 20.373665,494.41111 H 487.60767 c 6.6,0 12,-5.4 12,-12 v -169.935 c -18.713,-8.416 -42.152,-3.472 -55.287,14.866 l -51.058,71.277 c -12.713,17.747 -37.984,20.606 -54.34,6.148 l -7.456,-6.591 c -24.548,-21.699 -64.717,-21.699 -89.265,0 -4.849,4.286 -12.377,3.242 -15.877,-2.201 l -24.938,-38.783 c -20.888,-32.486 -68.377,-32.486 -89.265,0 l -14.879005,23.142 c -11.131,17.311 -36.436,17.311 -47.567,0 l -2.397,-3.727 c -9.002,-13.999 -24.211,-20.398 -38.9039996,-19.231 v 125.035 c -10e-4,6.6 5.3989996,12 11.9989996,12 z"
       id="path866"
       style="stroke:none" />
    <path
       fill="#8280d8"
       d="m 80.097665,102.49711 c 0,7.483 -6.067,13.55 -13.55,13.55 -7.483,0 -13.55,-6.067 -13.55,-13.55 0,-7.482997 6.067,-13.549997 13.55,-13.549997 7.484,0 13.55,6.067 13.55,13.549997 z m 277.423005,203.974 c -13.595,0 -24.616,11.021 -24.616,24.616 0,13.595 11.021,24.616 24.616,24.616 13.595,0 24.616,-11.021 24.616,-24.616 0,-13.595 -11.021,-24.616 -24.616,-24.616 z"
       id="path868"
       style="stroke:none" />
    <path
       fill="#c4a6ff"
       d="m 464.03467,50.327113 c 0,7.483 -6.067,13.55 -13.55,13.55 -7.483,0 -13.55,-6.067 -13.55,-13.55 0,-7.483 6.067,-13.55 13.55,-13.55 7.483,0 13.55,6.067 13.55,13.55 z m -254.072,105.488997 c -7.483,0 -13.55,6.067 -13.55,13.55 0,7.483 6.067,13.55 13.55,13.55 7.483,0 13.55,-6.067 13.55,-13.55 0,-7.483 -6.066,-13.55 -13.55,-13.55 z m -184.174005,10.006 c -7.483,0 -13.55,6.067 -13.55,13.55 0,7.483 6.067,13.55 13.55,13.55 7.483,0 13.55,-6.067 13.55,-13.55 0,-7.483 -6.067,-13.55 -13.55,-13.55 z m 125.823005,67.348 a 7.4445,7.4445 0 1 0 0,14.889 7.4445,7.4445 0 0 0 0,-14.889 z m 197.265,-47.691 a 7.4445,7.4445 0 1 0 0,14.889 7.4445,7.4445 0 0 0 0,-14.889 z M 84.449665,29.334113 a 7.4445,7.4445 0 1 0 0,14.889 7.4445,7.4445 0 0 0 0,-14.889 z M 264.06167,316.84611 c -7.865,0 -14.24,6.376 -14.24,14.24 0,7.864 6.376,14.24 14.24,14.24 7.864,0 14.24,-6.376 14.24,-14.24 0,-7.864 -6.375,-14.24 -14.24,-14.24 z"
       id="path870"
       style="stroke:none" />
    <path
       fill="#f7f9aa"
       d="m 87.544665,194.84611 5.019,10.17 a 3.45,3.45 0 0 0 2.599,1.888 l 11.223005,1.631 c 2.831,0.411 3.961,3.89 1.913,5.887 l -8.121,7.916 a 3.453,3.453 0 0 0 -0.993005,3.055 l 1.917005,11.178 c 0.484,2.82 -2.476005,4.97 -5.008005,3.638 l -10.038,-5.277 a 3.449,3.449 0 0 0 -3.212,0 l -10.038,5.277 c -2.532,1.331 -5.491,-0.819 -5.008,-3.638 l 1.917,-11.178 a 3.45,3.45 0 0 0 -0.993,-3.055 l -8.121,-7.916 c -2.048,-1.997 -0.918,-5.476 1.913,-5.887 l 11.223,-1.631 a 3.45,3.45 0 0 0 2.599,-1.888 l 5.019,-10.17 c 1.266,-2.565 4.924,-2.565 6.19,0 z m 349.059005,0 -5.019,10.17 a 3.45,3.45 0 0 1 -2.599,1.888 l -11.223,1.631 c -2.831,0.411 -3.961,3.89 -1.913,5.887 l 8.121,7.916 a 3.453,3.453 0 0 1 0.993,3.055 l -1.917,11.178 c -0.484,2.82 2.476,4.97 5.008,3.638 l 10.038,-5.277 a 3.449,3.449 0 0 1 3.212,0 l 10.038,5.277 c 2.532,1.331 5.491,-0.819 5.008,-3.638 l -1.917,-11.178 a 3.45,3.45 0 0 1 0.993,-3.055 l 8.121,-7.916 c 2.048,-1.997 0.918,-5.476 -1.913,-5.887 l -11.223,-1.631 a 3.45,3.45 0 0 1 -2.599,-1.888 l -5.019,-10.17 c -1.266,-2.565 -4.924,-2.565 -6.19,0 z m -65.927,-179.990997 -5.019,10.17 a 3.45,3.45 0 0 1 -2.599,1.888 l -11.223,1.631 c -2.831,0.411 -3.961,3.89 -1.913,5.887 l 8.121,7.916 a 3.453,3.453 0 0 1 0.993,3.055 l -1.917,11.178 c -0.484,2.82 2.476,4.97 5.008,3.638 l 10.038,-5.277 a 3.449,3.449 0 0 1 3.212,0 l 10.038,5.277 c 2.532,1.331 5.491,-0.819 5.008,-3.638 l -1.917,-11.178 a 3.45,3.45 0 0 1 0.993,-3.055 l 8.121,-7.916 c 2.048,-1.997 0.918,-5.476 -1.913,-5.887 l -11.223,-1.631 a 3.45,3.45 0 0 1 -2.599,-1.888 l -5.019,-10.17 c -1.266,-2.565 -4.924,-2.565 -6.19,0 z m -226.508,17.771 c -9.776,0 -17.701,7.925 -17.701,17.701 0,9.776 7.925,17.701 17.701,17.701 9.776,0 17.701,-7.925 17.701,-17.701 0,-9.776 -7.925,-17.701 -17.701,-17.701 z m 112.45,27.997 a 7.4445,7.4445 0 1 0 0,14.889 7.4445,7.4445 0 0 0 0,-14.889 z m 49.282,223.857997 a 6.257,6.257 0 1 0 0,12.514 6.257,6.257 0 0 0 0,-12.514 z"
       id="path872"
       style="stroke:none" />
    <path
       fill="#8280d8"
       d="m 497.23676,3.1771125 h 231.43798 a 202.203,202.203 0 0 0 12.238,10.8800005 c 23.164,18.991 37.945,47.829 37.945,80.12 0,0.881 -0.011,1.759 -0.033,2.635 a 15.253,15.253 0 0 0 15.767,15.696997 94.765,94.765 0 0 1 2.974,-0.046 c 25.083,0 47.876,9.796 64.766,25.771 11.403,10.784 28.374,13.309 42.341,6.149 21.533,-11.039 45.938,-17.265 71.799,-17.265 v 315.258 c -74.614,0 -137.11,-51.844 -153.452,-121.474 -2.752,-11.727 -13.182,-19.897 -25.228,-19.868 h -0.226 c -37.339,0 -69.605,-21.706 -84.874,-53.189 -6.18,-12.742 -22.812,-15.95 -33.346,-6.484 -35.03,31.479 -81.354,50.635 -132.158,50.635 -21.639,0 -42.462,-3.483 -61.95098,-9.904 V 15.177113 c 0,-6.6000005 5.4,-12.0000005 12,-12.0000005 z"
       id="path1765"
       style="stroke:none" />
    <path
       fill="#2b3b47"
       d="M 978.52925,494.41111 H 487.05862 c -6.94236,0 -12.62247,-5.4 -12.62247,-12 v -169.935 c 19.68369,-8.416 44.33853,-3.472 58.15488,14.866 l 53.70651,71.277 c 13.37246,17.747 39.95433,20.606 57.15876,6.148 l 7.84276,-6.591 c 25.82137,-21.699 68.07404,-21.699 93.8954,0 5.10053,4.286 13.01903,3.242 16.70058,-2.201 l 26.2316,-38.783 c 21.97152,-32.486 71.92389,-32.486 93.89541,0 l 15.65081,23.142 c 11.70839,17.311 38.32603,17.311 50.03442,0 l 2.52134,-3.727 c 9.46896,-13.999 25.46689,-20.398 40.92204,-19.231 v 125.035 c 10e-4,6.6 -5.67906,12 -12.62141,12 z"
       id="path1767"
       style="stroke:none;stroke-width:1.02561" />
    <path
       fill="#f7f9aa"
       d="m 908.80413,171.96327 -2.60741,11.05227 a 3.4430232,3.4569909 38.459007 0 1 -2.10803,2.43254 l -10.56589,4.15167 c -2.66533,1.04685 -2.9856,4.69362 -0.54277,6.1711 l 9.68598,5.85598 a 3.4460171,3.459997 38.459007 0 1 1.65253,2.74895 l 0.64021,11.3257 c 0.16115,2.85735 3.52662,4.27558 5.69412,2.39992 l 8.59376,-7.43244 a 3.4420252,3.4559889 38.459007 0 1 3.12865,-0.73352 l 10.96125,2.84768 c 2.76486,0.71823 5.16478,-2.05172 4.06195,-4.68727 l -4.37471,-10.45013 a 3.4430232,3.4569909 38.459007 0 1 0.28193,-3.20249 l 6.13452,-9.56517 c 1.54689,-2.41288 -0.3342,-5.54354 -3.18393,-5.29736 l -11.29762,0.97433 a 3.4430232,3.4569909 38.459007 0 1 -2.95508,-1.24548 l -7.17009,-8.75989 c -1.80854,-2.20932 -5.37161,-1.37394 -6.02937,1.41361 z m -340.00063,79.71455 7.1701,8.75989 a 3.4430232,3.4569909 38.459007 0 0 2.95507,1.24548 l 11.29762,-0.97433 c 2.84973,-0.24618 4.73082,2.88448 3.18394,5.29736 l -6.13453,9.56517 a 3.4460171,3.459997 38.459007 0 0 -0.28193,3.20249 l 4.37472,10.45013 c 1.10402,2.63629 -1.29687,5.40647 -4.06196,4.68727 l -10.96125,-2.84768 a 3.4420252,3.4559889 38.459007 0 0 -3.12865,0.73352 l -8.59376,7.43244 c -2.16772,1.87469 -5.53222,0.45623 -5.69412,-2.39992 l -0.64021,-11.3257 a 3.4430232,3.4569909 38.459007 0 0 -1.65253,-2.74895 l -9.68598,-5.85598 c -2.44282,-1.47748 -2.12256,-5.12425 0.54278,-6.1711 l 10.56588,-4.15167 a 3.4430232,3.4569909 38.459007 0 0 2.10804,-2.43254 l 2.60741,-11.05227 c 0.65776,-2.78755 4.22083,-3.62293 6.02936,-1.41361 z m 23.84034,-190.375821 7.1701,8.759892 a 3.4430232,3.4569909 38.459007 0 0 2.95507,1.245471 l 11.29762,-0.97432 c 2.84973,-0.246181 4.73082,2.884478 3.18394,5.297356 l -6.13453,9.565164 a 3.4460171,3.459997 38.459007 0 0 -0.28193,3.202492 l 4.37472,10.450139 c 1.10402,2.636287 -1.29687,5.406467 -4.06196,4.687267 l -10.96125,-2.84769 a 3.4420252,3.4559889 38.459007 0 0 -3.12865,0.73353 l -8.59376,7.43243 c -2.16772,1.87469 -5.53222,0.45624 -5.69412,-2.39991 l -0.64021,-11.325707 a 3.4430232,3.4569909 38.459007 0 0 -1.65253,-2.748953 l -9.68598,-5.855978 c -2.44282,-1.477474 -2.12256,-5.124249 0.54278,-6.171099 l 10.56588,-4.151669 a 3.4430232,3.4569909 38.459007 0 0 2.10804,-2.432538 l 2.6074,-11.052268 c 0.65777,-2.787552 4.22084,-3.622929 6.02937,-1.413609 z m 224.61634,-34.41777 c 9.52231,-2.232543 19.01939,3.676965 21.21236,13.19927 2.19296,9.522303 -3.74863,19.051474 -13.27094,21.284017 -9.5223,2.232544 -19.01939,-3.676965 -21.21235,-13.199268 -2.19297,-9.522304 3.74863,-19.051475 13.27093,-21.284019 z M 714.00867,79.834871 a 7.4294473,7.4595873 38.459007 1 1 3.33992,14.502622 7.4294473,7.4595873 38.459007 0 1 -3.33992,-14.502622 z m 2.21301,229.303229 a 6.2443467,6.2696789 38.459007 1 1 2.80716,12.18925 6.2443467,6.2696789 38.459007 0 1 -2.80716,-12.18925 z"
       id="path1870"
       style="stroke:none" />
    <path
       fill="#c4a6ff"
       d="m 654.35301,155.8161 c 7.483,0 13.55,6.067 13.55,13.55 0,7.483 -6.067,13.55 -13.55,13.55 -7.483,0 -13.55,-6.067 -13.55,-13.55 0,-7.483 6.066,-13.55 13.55,-13.55 z m 184.174,10.006 c 7.483,0 13.54999,6.067 13.54999,13.55 0,7.483 -6.06699,13.55 -13.54999,13.55 -7.483,0 -13.55,-6.067 -13.55,-13.55 0,-7.483 6.067,-13.55 13.55,-13.55 z m -125.823,67.348 c 4.11149,0 7.4445,3.33302 7.4445,7.4445 0,4.11148 -3.33301,7.4445 -7.4445,7.4445 -4.11149,0 -7.4445,-3.33302 -7.4445,-7.4445 0,-4.11148 3.33301,-7.4445 7.4445,-7.4445 z m -197.265,-47.691 c 4.11149,0 7.4445,3.33302 7.4445,7.4445 0,4.11148 -3.33301,7.4445 -7.4445,7.4445 -4.11149,0 -7.4445,-3.33302 -7.4445,-7.4445 0,-4.11148 3.33301,-7.4445 7.4445,-7.4445 z m 264.427,-156.144986 c 4.11149,0 7.4445,3.333016 7.4445,7.4445 0,4.111484 -3.33301,7.4445 -7.4445,7.4445 -4.11149,0 -7.4445,-3.333016 -7.4445,-7.4445 0,-4.111484 3.33301,-7.4445 7.4445,-7.4445 z M 600.25401,316.8461 c 7.865,0 14.24,6.376 14.24,14.24 0,7.864 -6.376,14.24 -14.24,14.24 -7.864,0 -14.24,-6.376 -14.24,-14.24 0,-7.864 6.375,-14.24 14.24,-14.24 z"
       id="path1872"
       style="stroke:none"
       sodipodi:nodetypes="ssssssssssssssssssssssssssssss" />
    <path
       fill="#5f65b2"
       d="m 870.69671,277.8223 a 7.4546194,7.4343943 49.368124 1 0 2.24121,-14.71627 7.4546194,7.4343943 49.368124 0 0 -2.24121,14.71627 z M 703.65317,197.72859 c 9.66258,1.49812 18.68858,-5.12048 20.16014,-14.78307 1.47156,-9.66258 -5.16857,-18.71011 -14.83116,-20.20823 -9.66258,-1.49812 -18.68858,5.12048 -20.16014,14.78306 -1.47156,9.66259 5.16857,18.71012 14.83116,20.20824 z M 648.73173,73.547537 c 7.39718,1.146883 14.30606,-3.920151 15.43246,-11.31634 1.1264,-7.396189 -3.95696,-14.32254 -11.35315,-15.46927 -7.39619,-1.146731 -14.30606,3.92015 -15.43246,11.316339 -1.12655,7.397178 3.95696,14.322541 11.35315,15.469271 z M 515.04539,60.649179 c 13.43728,2.083362 25.98939,-7.120873 28.03582,-20.558156 2.04643,-13.437283 -7.18775,-26.019338 -20.62503,-28.102699 -13.43729,-2.0833625 -25.9894,7.120873 -28.03583,20.558156 -2.04543,13.437437 7.18775,26.019337 20.62504,28.102699 z"
       id="path2072"
       style="stroke:none" />
  </g>
</svg>
