<?xml version="1.0" encoding="UTF-8" standalone="no"?>
<!-- Created with Inkscape (http://www.inkscape.org/) -->

<svg
   width="986.302"
   height="1087.53"
   viewBox="0 0 260.95907 287.74233"
   version="1.1"
   id="svg5"
   inkscape:version="1.1.1 (c3084ef, 2021-09-22)"
   sodipodi:docname="logo.svg"
   inkscape:export-filename="/Users/ryguy/Desktop/cowards_with_badges.png"
   inkscape:export-xdpi="96"
   inkscape:export-ydpi="96"
   xmlns:inkscape="http://www.inkscape.org/namespaces/inkscape"
   xmlns:sodipodi="http://sodipodi.sourceforge.net/DTD/sodipodi-0.dtd"
   xmlns="http://www.w3.org/2000/svg"
   xmlns:svg="http://www.w3.org/2000/svg">
  <sodipodi:namedview
     id="namedview7"
     pagecolor="#ffffff"
     bordercolor="#666666"
     borderopacity="1.0"
     inkscape:pageshadow="2"
     inkscape:pageopacity="0.0"
     inkscape:pagecheckerboard="0"
     inkscape:document-units="mm"
     showgrid="false"
     inkscape:zoom="0.79449952"
     inkscape:cx="471.36592"
     inkscape:cy="523.60006"
     inkscape:window-width="1920"
     inkscape:window-height="1080"
     inkscape:window-x="0"
     inkscape:window-y="0"
     inkscape:window-maximized="0"
     inkscape:current-layer="layer2"
     units="px"
     width="986.302px" />
  <defs
     id="defs2">
    <inkscape:path-effect
       effect="powerstroke"
       id="path-effect132265"
       is_visible="true"
       lpeversion="1"
       offset_points="0.0011470996,5.0030788"
       not_jump="false"
       sort_points="true"
       interpolator_type="CubicBezierJohan"
       interpolator_beta="0.2"
       start_linecap_type="zerowidth"
       linejoin_type="extrp_arc"
       miter_limit="4"
       scale_width="1"
       end_linecap_type="zerowidth" />
    <inkscape:path-effect
       effect="spiro"
       id="path-effect132263"
       is_visible="true"
       lpeversion="1" />
  </defs>
  <g
     inkscape:groupmode="layer"
     id="layer2"
     inkscape:label="logo"
     style="opacity:1">
    <path
       style="fill:#4b5864;fill-opacity:1;stroke:#4b5864;stroke-width:3.175;stroke-linecap:butt;stroke-linejoin:miter;stroke-miterlimit:4;stroke-dasharray:none;stroke-opacity:1"
       d="M 48.183939,2.1270876 12.783033,34.30975 c 0,0 47.35446,19.76935 -10.5743046,147.58049 0,0 -9.195034,53.79103 41.3776836,82.29567 0,0 66.204308,6.89628 86.893138,21.60836 20.68885,-14.71208 86.89319,-21.60836 86.89319,-21.60836 50.57275,-28.50464 41.37771,-82.29567 41.37771,-82.29567 C 200.82165,54.0791 248.17614,34.30975 248.17614,34.30975 L 212.77521,2.1270876 C 190.7071,21.436685 154.61953,7.7239332 129.47636,7.9785111 111.44069,8.1611246 75.26797,22.105476 48.183939,2.1270876 Z"
       id="path2729"
       sodipodi:nodetypes="cccccccccsc" />
    <path
       id="path11658"
       style="fill:#49c7bc;fill-opacity:1;stroke:none;stroke-width:2.76341;stroke-linecap:butt;stroke-linejoin:miter;stroke-miterlimit:4;stroke-dasharray:none;stroke-opacity:1"
       d="m 49.722712,14.469974 c -0.14867,0.01289 -2.24272,2.086314 -4.80902,4.667416 l 26.71723,35.959563 c 1.33951,1.802855 18.49821,23.571972 17.72915,26.046988 0,0 0.20135,1.791274 -1.29553,2.993617 -0.95515,0.767218 -3.9119,0.246497 -3.9119,0.246497 0,0 -19.15871,-22.444609 -20.68454,-24.173204 L 35.592822,28.629835 c -2.16892,2.232454 -4.2722,4.4073 -5.98879,6.19187 0,0 6.15378,5.584505 10.4159,19.386931 l 0.10491,-0.205156 c 0.77732,-1.52052 1.10942,-2.832018 2.09135,-1.880505 l 23.93497,23.193415 c 1.00801,0.976783 14.05599,13.20333 14.05599,13.20333 0,0 0.45934,2.039146 0.11369,2.7466 -0.54168,1.108649 -1.50018,1.061434 -1.50018,1.061434 -1.25918,0.665996 -13.82549,-10.197936 -14.86109,-11.040668 L 42.305062,63.666455 c 0.87852,4.800182 1.49389,10.251929 1.65261,16.469796 l 17.65319,11.567253 c 0.79671,0.522057 10.65665,6.518904 11.11612,8.04912 0,0 0.51663,0.870986 0.46665,1.964736 -0.0319,0.69793 -0.88678,1.34876 -0.88678,1.34876 0,0 -10.52293,-5.725301 -11.34557,-6.150531 l -17.04546,-8.810831 c -0.10584,3.093453 -0.31539,6.338445 -0.64958,9.74979 l 11.41378,5.557802 c 0.82687,0.40264 11.32903,5.16868 11.32903,5.16868 0,0 1.14501,1.88908 1.36375,2.86649 0.34271,1.53172 -0.0191,2.09186 -0.0191,2.09186 -0.12409,1.51543 -9.7994,-2.09831 -10.57146,-2.33991 l -14.60582,-4.57078 c -0.30337,2.04312 -0.64754,4.13545 -1.03714,6.28179 l 8.61756,2.7988 c 0.91985,0.29873 12.65814,3.64164 12.65814,3.64164 0,0 1.0635,2.14046 1.16944,3.34864 0.166,1.89338 -0.35243,2.71714 -0.35243,2.71714 -0.38666,1.9984 -11.32335,-0.0746 -12.2034,-0.17931 l -12.15171,-1.44591 c -0.37261,1.595 -0.77332,3.21983 -1.19321,4.86585 l 11.40137,1.49603 c 0.97581,0.12807 13.47721,1.36995 13.47721,1.36995 0,0 0.93901,1.64844 0.9276,2.64428 -0.0179,1.5606 -0.6723,2.31769 -0.6723,2.31769 -0.6341,1.72141 -12.39176,1.43519 -13.34442,1.46399 l -14.46837,0.43822 c -0.68239,2.31117 -1.41303,4.67167 -2.18797,7.07553 l 14.73967,-0.80666 c 1.12988,-0.0618 15.63108,-1.33842 15.63108,-1.33842 0,0 0.98899,1.79342 0.91157,3.00601 -0.12123,1.90029 -0.93326,2.96623 -0.93326,2.96623 -0.85035,2.233 -14.5455,4.50532 -15.6585,4.75268 l -19.120271,4.24884 c -0.683179,1.85748 -1.397979,3.74446 -2.135269,5.65237 l 16.62949,-3.85558 c 1.56215,-0.36218 21.53975,-5.47719 21.53975,-5.47719 0,0 1.64214,1.46834 1.71464,2.66082 0.11361,1.86876 -0.85783,3.11661 -0.85783,3.11661 -0.85096,2.38543 -19.55943,8.24652 -21.07055,8.78344 l -23.4823,8.34316 c -0.691781,1.61498 -1.398641,3.24308 -2.128021,4.89118 0,0 -0.31866,2.04531 -0.47336,5.39708 l 28.298011,-11.28923 c 1.66565,-0.66452 22.90868,-9.63455 22.90868,-9.63455 0,0 1.97231,1.10603 2.19419,2.25516 0.34774,1.80076 -0.56587,3.21169 -0.56587,3.21169 -0.64566,2.49699 -20.41128,11.94128 -22.00021,12.76614 l -30.336641,15.74839 c 0.55133,4.58388 1.57921,9.73099 3.355871,15.09831 l 28.38225,-21.16977 c 1.84819,-1.37852 25.20672,-19.41174 25.20672,-19.41174 0,0 3.00027,0.0969 3.77756,1.04387 1.21811,1.48404 0.65371,3.19619 0.65371,3.19619 0.24452,2.58018 -21.01779,20.36296 -22.6989,21.85241 l -30.01521,26.59321 c 1.413909,2.5406 3.01864,5.0732 4.87929,7.56336 l 27.5208,-26.94667 c 1.64745,-1.61308 22.38779,-22.60534 22.38779,-22.60534 0,0 2.98612,-0.30497 3.88295,0.52968 1.40547,1.30799 1.07487,3.07991 1.07487,3.07991 0.58706,2.52439 -18.10904,22.98825 -19.57605,24.68894 l -26.59218,30.82757 c 2.49489,2.27668 5.25708,4.46832 8.31268,6.54379 l 24.33132,-33.14785 c 1.36432,-1.85868 18.42884,-25.93381 18.42884,-25.93381 0,0 2.8979,-0.78477 3.91811,-0.10646 1.59885,1.06299 1.55908,2.86546 1.55908,2.86546 0.98832,2.39591 -14.14481,25.61831 -15.31689,27.53424 l -20.13109,32.90703 c 3.2784,0.43766 7.17788,0.99197 11.85352,1.74718 l 16.39901,-32.60059 c 0.88228,-1.7539 11.800308,-24.38559 11.800308,-24.38559 0,0 2.32203,-1.06943 3.27474,-0.64441 1.49297,0.66608 1.71514,2.18488 1.71514,2.18488 1.16919,1.87173 -8.247938,23.51419 -8.960698,25.28889 l -12.91084,32.14688 c 3.93099,0.75249 7.98107,1.59806 11.99515,2.53628 L 107.1347,229.6243 c 0.56528,-1.83688 7.39129,-25.45788 7.39129,-25.45788 0,0 2.13508,-1.43247 3.16878,-1.19166 1.61997,0.37736 2.1203,1.79524 2.1203,1.79524 1.51506,1.59056 -3.98511,23.99969 -4.37648,25.82685 l -7.36804,34.39841 c 4.99989,1.46492 9.65756,3.09418 13.62349,4.89066 l 2.70576,-35.81022 c 0.1493,-1.97598 1.65624,-27.24381 1.65624,-27.24381 0,0 1.6959,-2.08425 2.70939,-2.18075 1.58826,-0.1511 2.34664,1.07332 2.34664,1.07332 1.74,1.06781 1.22041,24.72644 1.23092,26.63714 l 0.22376,39.28442 c 3.66022,-2.00082 8.23021,-3.81332 13.27308,-5.44566 l -4.05452,-34.51573 c -0.22183,-1.88859 -3.61612,-25.16825 -2.0252,-26.50174 0,0 0.60079,-1.33111 2.19003,-1.4366 1.01412,-0.0669 2.94558,1.71927 2.94558,1.71927 0,0 4.56602,24.71028 4.95422,26.63765 l 6.27763,31.16761 c 3.64154,-0.92906 7.34952,-1.7901 11.03757,-2.56108 l -9.4511,-31.57999 c -0.54562,-1.82316 -7.93509,-24.12443 -6.56082,-25.86715 0,0 0.37746,-1.48225 1.95956,-2.00143 1.00954,-0.3313 3.25924,0.94464 3.25924,0.94464 0,0 8.81404,23.42136 9.53379,25.23981 l 12.32638,31.14228 c 4.77774,-0.84085 9.17903,-1.52838 12.98265,-2.07894 l -16.26206,-31.43064 c -0.92617,-1.79012 -12.90505,-23.50859 -12.06851,-25.69197 0,0 -0.007,-1.65984 1.30743,-2.60243 0.83865,-0.60145 3.18273,0.18604 3.18273,0.18604 0,0 13.53709,22.54668 14.62032,24.28844 l 20.9672,33.71318 c 0.13247,-0.0146 0.68728,-0.0791 0.68728,-0.0791 3.23067,-1.86484 6.17111,-3.85506 8.85888,-5.93711 l -22.08495,-29.72428 c -1.33948,-1.80286 -18.49821,-23.57197 -17.72915,-26.04699 0,0 -0.20132,-1.79126 1.29553,-2.99361 0.95515,-0.76722 3.91192,-0.2465 3.91192,-0.2465 0,0 19.15872,22.44513 20.68452,24.17372 l 23.18411,26.26558 c 2.88425,-3.20413 5.30445,-6.52243 7.35716,-9.87278 l -27.01591,-25.83925 c -1.5031,-1.43764 -20.63208,-18.73051 -20.10214,-20.87883 0,0 -0.36992,-1.50423 1.00459,-2.6231 0.87702,-0.71401 3.86644,-0.47077 3.86644,-0.47077 0,0 21.18188,17.73168 22.8632,19.09392 l 24.71116,20.02152 c 1.54974,-3.92132 2.67657,-7.76732 3.47678,-11.41894 l -26.79269,-16.87184 c -1.64422,-1.03541 -22.27696,-13.20855 -22.47095,-15.50086 0,0 -0.7397,-1.40624 0.0548,-2.89491 0.50689,-0.94995 3.0148,-1.50844 3.0148,-1.50844 0,0 22.4341,12.06073 24.20162,12.97285 l 23.65748,12.20856 c 0.20201,-2.89765 0.21937,-5.40806 0.16277,-7.55303 L 217.05311,177.46 c -1.58893,-0.82486 -21.35454,-10.26966 -22.00021,-12.76666 0,0 -0.9136,-1.41093 -0.56586,-3.2117 0.22188,-1.14912 2.19419,-2.25515 2.19419,-2.25515 0,0 21.24302,8.97003 22.90868,9.63455 l 16.6765,6.65334 c -1.52405,-3.61443 -2.95047,-7.14321 -4.28656,-10.59005 l -14.30198,-4.0752 c -1.32453,-0.37745 -17.62612,-4.27007 -18.62727,-6.54999 0,0 -0.96221,-1.13812 -1.09659,-3.00447 -0.0857,-1.19096 1.10225,-2.8174 1.10225,-2.8174 0,0 17.26771,3.02173 18.61333,3.22048 l 9.98389,1.47484 c -0.62528,-1.80344 -1.22401,-3.58169 -1.79731,-5.33559 l -9.13691,-1.39785 c -1.12702,-0.17245 -14.943,-1.52418 -15.94062,-3.69538 0,0 -0.88172,-1.00955 -1.12963,-2.8975 -0.15825,-1.20471 0.709,-3.06079 0.709,-3.06079 0,0 14.55383,0.30523 15.68535,0.29145 l 6.50605,-0.0791 c -0.53592,-1.88919 -1.04934,-3.75606 -1.52395,-5.5826 l -7.66154,-0.23203 c -0.95266,-0.0288 -12.70979,0.25794 -13.34389,-1.46348 0,0 -0.65497,-0.7571 -0.67283,-2.31769 -0.0116,-0.99584 0.9276,-2.64428 0.9276,-2.64428 0,0 12.5014,-1.24187 13.47721,-1.36994 l 5.18263,-0.68006 c -0.33578,-1.52678 -0.64473,-3.02422 -0.93741,-4.50361 l -7.41919,0.88263 c -0.88005,0.10473 -11.81621,2.17773 -12.20287,0.17932 0,0 -0.51895,-0.82378 -0.35295,-2.71714 0.10588,-1.20819 1.16996,-3.34864 1.16996,-3.34865 0,0 11.73829,-3.34291 12.65814,-3.64164 l 4.41264,-1.43298 c -0.35123,-2.43309 -0.63966,-4.79044 -0.87487,-7.08071 l -11.30834,4.35632 c -0.75489,0.29084 -10.17739,4.52115 -10.39887,3.01688 0,0 -0.39685,-0.53608 -0.15346,-2.0867 0.15529,-0.98946 1.17615,-2.94866 1.17615,-2.94866 0,0 10.17323,-5.43241 10.97246,-5.887493 l 9.05526,-5.156274 c -0.20574,-4.48796 -0.18087,-8.654619 0.0165,-12.535667 l -16.04967,10.032979 c -0.78521,0.490855 -10.80606,7.054349 -10.80606,7.054349 0,0 -0.90546,-0.578757 -0.99425,-1.271756 -0.13894,-1.086041 0.3054,-1.996263 0.3054,-1.996263 0.33325,-1.562571 9.67111,-8.342884 10.42263,-8.928137 l 17.63612,-13.73456 0.3266,-0.285772 c 0.69535,-5.084826 1.71257,-9.504121 2.8851,-13.371276 l -22.67149,18.448485 c -1.0356,0.842732 -13.60191,11.706664 -14.86111,11.040671 0,0 -0.95848,0.04773 -1.50016,-1.060919 -0.34566,-0.707453 0.11369,-2.747118 0.11369,-2.747118 0,0 13.04798,-12.226546 14.05599,-13.203327 l 23.93497,-23.193417 c 0.98192,-0.951511 1.31403,0.359984 2.09135,1.880505 l 1.1684,2.285132 c 4.47386,-10.757368 9.71878,-15.165999 9.71878,-15.165999 l -9.13898,-8.009767 -25.56846,28.966707 c -1.5258,1.728594 -20.68452,24.173717 -20.68452,24.173717 0,0 -2.95677,0.520724 -3.91192,-0.246497 -1.49685,-1.20234 -1.29553,-2.993615 -1.29553,-2.993615 -0.76904,-2.475015 16.38967,-24.244133 17.72915,-26.046987 l 24.03575,-32.349965 -4.34443,-3.80752 c -3.46615,3.106026 -7.55579,5.156916 -12.04992,6.450769 l -18.39113,28.345559 c -1.0686,1.646994 -14.39394,22.950535 -14.39394,22.950535 0,0 -2.42481,0.80872 -3.32539,0.282154 -1.41124,-0.825204 -1.46606,-2.35903 -1.46606,-2.35903 -0.95769,-1.988262 10.76769,-22.472005 11.67008,-24.158215 l 12.42304,-23.213053 c -4.65133,0.09804 -9.47875,-0.237697 -14.32626,-0.77308 l -9.38702,24.446055 c -0.57971,1.509599 -7.5913,20.924819 -7.5913,20.924819 0,0 -2.1463,1.166241 -3.17809,0.961181 -1.61692,-0.321355 -2.10582,-1.49293 -2.10582,-1.49293 -1.50252,-1.320128 4.17335,-19.745597 4.57906,-21.248317 l 6.76445,-25.054285 c -3.50766,-0.534344 -6.96979,-1.079571 -10.30066,-1.578715 L 141.80028,44.849 c -0.27374,1.538113 -3.37344,21.238496 -3.37344,21.238496 0,0 -1.82226,1.499248 -2.83858,1.493448 -1.59268,-0.0091 -2.27118,-1.030943 -2.27118,-1.030943 -1.66685,-0.977477 0.3474,-19.494828 0.45736,-20.994584 l 1.989,-27.125994 c -2.31071,-0.203796 -4.50911,-0.317036 -6.56238,-0.297657 -2.48478,0.02345 -5.15223,0.458686 -7.97626,1.075387 l 1.9539,26.640752 c 0.10993,1.499757 2.12418,20.017108 0.45733,20.994585 0,0 -0.67847,1.021876 -2.27119,1.030943 -1.01629,0.0058 -2.83912,-1.493448 -2.83912,-1.493448 0,0 -3.09967,-19.700383 -3.37343,-21.238496 l -4.15632,-23.352065 c -3.34303,0.872931 -6.89808,1.740154 -10.67998,2.414325 l 6.57582,24.357167 c 0.40571,1.50272 6.08161,19.928192 4.57906,21.248317 0,0 -0.48887,1.171575 -2.10582,1.492933 -1.03179,0.205057 -3.17809,-0.961184 -3.17809,-0.961184 0,0 -7.011588,-19.415736 -7.591268,-20.925337 l -9.22115,-24.01352 c -4.27416,0.147557 -8.79901,-0.09294 -13.59969,-0.93431 l 13.05296,24.390758 c 0.90241,1.686213 12.627788,22.169953 11.670078,24.158215 0,0 -0.0547,1.534345 -1.466058,2.359546 -0.90053,0.526568 -3.32536,-0.28267 -3.32536,-0.28267 0,0 -13.32534,-21.303541 -14.39397,-22.950535 L 60.371662,19.868095 c -3.42959,-1.442968 -6.97513,-3.20516 -10.64895,-5.35988 0.0133,-0.0268 0.0131,-0.03938 0,-0.03824 z" />
    <path
       style="fill:none;fill-opacity:1;stroke:#6fce81;stroke-width:2.79779;stroke-linecap:butt;stroke-linejoin:miter;stroke-miterlimit:4;stroke-dasharray:none;stroke-opacity:0.571802"
       d="m 49.615679,12.548195 c 0.433107,-0.865069 -14.724092,14.520748 -21.953197,21.979657 0,0 40.953385,33.819935 -9.679062,147.367508 0,0 -8.0368894,47.788 36.166033,73.11156 0,0 57.865667,6.12666 75.948667,19.19689 18.08302,-13.07023 75.94871,-19.19689 75.94871,-19.19689 44.20294,-25.32356 36.16605,-73.11156 36.16605,-73.11156 C 191.5804,68.347787 233.85123,35.425581 233.85123,35.425581 L 208.53786,12.827772 C 189.24931,29.982443 152.364,15.997489 130.38751,16.203349 113.06852,16.365583 88.060413,34.926794 49.615679,12.548195 Z"
       id="path20780"
       sodipodi:nodetypes="cccccccccsc" />
    <path
       style="fill:none;stroke:#000000;stroke-width:0.264583px;stroke-linecap:butt;stroke-linejoin:miter;stroke-opacity:1"
       d="m 81.467359,72.725559 c 0,0 51.831311,-27.754831 96.974711,0.66879"
       id="path4046" />
    <ellipse
       style="opacity:1;fill:#bb4350;fill-opacity:1;fill-rule:evenodd;stroke:#4b5864;stroke-width:10.3515;stroke-miterlimit:4;stroke-dasharray:none;stroke-opacity:1"
       id="path41344"
       cx="127.94709"
       cy="136.11136"
       rx="73.990105"
       ry="70.148537" />
    <path
       style="fill:#c1f168;fill-opacity:1;stroke:none;stroke-width:0.19532px;stroke-linecap:butt;stroke-linejoin:miter;stroke-opacity:1"
       d="m 168.44943,66.730946 c 0,0 -4.445,7.84823 -0.11227,9.159051 0,0 11.8952,6.845015 18.94959,15.021429 0.97365,1.128514 2.65314,0.216362 2.59656,-1.201019 l -0.18527,-9.992916 3.23012,-2.344779 c 0,0 8.00357,0.381725 9.08938,-0.218343 1.51521,-0.837375 1.40516,-2.902062 -0.003,-4.075303 l -15.86062,-13.214836 -11.03552,1.396045 -5.05332,2.647597 z"
       id="path34926"
       sodipodi:nodetypes="ccssccsscccc" />
    <path
       style="fill:#c1f168;fill-opacity:1;stroke:none;stroke-width:0.19532px;stroke-linecap:butt;stroke-linejoin:miter;stroke-opacity:1"
       d="m 92.292629,66.537676 c 0,0 4.444995,7.84823 0.112265,9.159051 0,0 -11.895194,6.845015 -18.949586,15.021429 -0.973655,1.128514 -2.65314,0.216362 -2.596565,-1.201019 l 0.185275,-9.992916 -3.230121,-2.344779 c 0,0 -8.003574,0.381725 -9.089382,-0.218343 -1.515207,-0.837375 -1.405155,-2.902062 0.003,-4.075303 l 15.860622,-13.214836 11.035519,1.396045 5.053316,2.647597 z"
       id="path34894"
       sodipodi:nodetypes="ccssccsscccc" />
    <path
       style="opacity:1;fill:#fd5e63;fill-opacity:1;stroke:#bb4350;stroke-width:4;stroke-linecap:butt;stroke-linejoin:miter;stroke-miterlimit:4;stroke-dasharray:none;stroke-dashoffset:0;stroke-opacity:1"
       d="m 70.728471,48.68847 c 17.176295,-12.025961 68.808289,-32.975362 120.187299,0.825688 1.80313,1.186237 -1.99249,7.14726 -4.80446,13.348338 -2.81197,6.201078 -4.64028,12.64221 -9.05711,10.726833 C 163.54376,67.73047 134.46774,47.127858 85.015838,73.547262 81.447685,75.453528 79.026435,69.499954 75.314118,63.531602 71.601802,57.56325 66.59842,51.58012 70.728471,48.68847 Z"
       id="path19461"
       sodipodi:nodetypes="sssssss" />
    <g
       aria-label="COWARDS"
       transform="translate(-0.94803993,-0.81193063)"
       id="text5260"
       style="font-size:29.6333px;line-height:1.25;letter-spacing:0.150813px;word-spacing:0px;fill:#4b5864;stroke-width:0.264583">
      <path
         d="m 93.921504,58.55835 0.452301,1.222902 q 0.339225,0.917176 0.2863,1.884607 -0.03541,0.929358 -0.410433,1.794753 -0.375022,0.865394 -1.064905,1.562886 -0.672369,0.659419 -1.617338,1.008923 -0.806004,0.298108 -1.722037,0.384148 Q 88.929359,66.50261 88.05673,66.193455 87.184102,65.8843 86.420744,65.187183 85.6749,64.451993 85.171202,63.090125 L 81.141617,52.195181 q -0.359784,-0.972763 -0.334652,-1.929914 0.02513,-0.957152 0.410433,-1.794753 0.385301,-0.837601 1.095743,-1.479506 0.727955,-0.679978 1.756305,-1.060322 2.001112,-0.740127 3.734946,0.103574 0.847881,0.413094 1.510345,1.179123 0.679978,0.727955 1.060321,1.756305 l 0.411183,1.111729 -2.834909,1.048514 -0.349505,-0.944969 q -0.308387,-0.833797 -1.007022,-1.270496 -0.698635,-0.436698 -1.504638,-0.138591 -1.056143,0.390623 -1.170745,1.191294 -0.09709,0.762599 0.272975,1.763155 l 3.741757,10.116734 q 0.318666,0.86159 0.895849,1.311613 0.604975,0.439744 1.577738,0.07996 0.277932,-0.102796 0.552819,-0.29925 0.292401,-0.234528 0.488097,-0.559669 0.167902,-0.314862 0.190748,-0.765645 0.02285,-0.450782 -0.193025,-1.03444 l -0.359785,-0.972763 z"
         style="font-weight:bold;font-stretch:condensed;font-family:'DIN Condensed';-inkscape-font-specification:'DIN Condensed,  Bold Condensed'"
         id="path153603" />
      <path
         d="m 94.45355,47.819006 q -0.323016,-1.23261 -0.140932,-2.291247 0.182085,-1.058636 0.733455,-1.877074 0.530217,-0.78226 1.307545,-1.322939 0.805994,-0.54819 1.69462,-0.781062 0.888626,-0.232872 1.831219,-0.142913 0.971253,0.08245 1.845643,0.49662 0.85323,0.45035 1.53111,1.283627 0.67787,0.833277 1.00089,2.065887 l 2.82451,10.778173 q 0.33804,1.289941 0.14844,2.319912 -0.18959,1.029971 -0.71981,1.812231 -0.55137,0.818438 -1.35736,1.366629 -0.77733,0.540678 -1.66596,0.77355 -0.88863,0.232872 -1.85988,0.150425 -0.9426,-0.08996 -1.795828,-0.540309 -0.874386,-0.414173 -1.54475,-1.218784 -0.670364,-0.804612 -1.008404,-2.094553 z m 5.74837,10.01195 q 0.27795,1.060618 0.98647,1.426355 0.72968,0.329559 1.53231,0.119223 0.80263,-0.210336 1.24823,-0.847887 0.46676,-0.673728 0.18881,-1.734346 l -2.82451,-10.778173 q -0.27794,-1.060618 -1.00762,-1.390177 -0.708519,-0.365737 -1.511148,-0.155401 -0.80263,0.210336 -1.269387,0.884064 -0.445603,0.637551 -0.167659,1.698169 z"
         style="font-weight:bold;font-stretch:condensed;font-family:'DIN Condensed';-inkscape-font-specification:'DIN Condensed,  Bold Condensed'"
         id="path153605" />
      <path
         d="m 123.74751,37.179524 -0.29448,21.329416 -2.8193,0.380022 -4.11954,-13.259113 -0.0587,0.0079 -0.43246,13.87269 -2.8193,0.380023 -5.93147,-20.490201 3.17171,-0.427525 3.28702,13.072317 0.0587,-0.0079 0.56014,-13.590889 2.29069,-0.308768 4.27033,13.268688 0.0587,-0.0079 -0.3938,-13.791219 z"
         style="font-weight:bold;font-stretch:condensed;font-family:'DIN Condensed';-inkscape-font-specification:'DIN Condensed,  Bold Condensed'"
         id="path153607" />
      <path
         d="m 134.23887,50.870582 -1.46518,-7.648567 -0.0593,-1.27e-4 -1.49814,7.64218 z m -7.48347,7.362582 4.75715,-21.088707 2.51882,0.0054 4.66622,21.109016 -3.02259,-0.0065 -0.87923,-4.535801 -4.11902,-0.0089 -0.89877,4.531969 z"
         style="font-weight:bold;font-stretch:condensed;font-family:'DIN Condensed';-inkscape-font-specification:'DIN Condensed,  Bold Condensed'"
         id="path153609" />
      <path
         d="m 146.0687,40.758336 -0.88263,6.519114 1.70319,0.230598 q 0.79286,0.107347 1.29054,-0.0346 0.50165,-0.17131 0.8216,-0.546643 0.29059,-0.379309 0.4582,-0.954689 0.17159,-0.604745 0.27893,-1.39761 0.10735,-0.792865 0.0988,-1.3921 -0.005,-0.628601 -0.20925,-1.104864 -0.44662,-0.897771 -2.00299,-1.10849 z m -5.44438,17.683537 2.83079,-20.908147 4.81592,0.652035 q 5.28577,0.715649 4.45482,6.853013 -0.25048,1.850019 -1.01272,3.062579 -0.73288,1.216535 -2.27913,1.814585 l 1.93805,9.981088 -3.17146,-0.429389 -1.58106,-9.304778 -1.79129,-0.242525 -1.20865,8.927074 z"
         style="font-weight:bold;font-stretch:condensed;font-family:'DIN Condensed';-inkscape-font-specification:'DIN Condensed,  Bold Condensed'"
         id="path153611" />
      <path
         d="m 153.59649,60.431747 5.89046,-20.259972 4.29671,1.249242 q 2.50404,0.728034 3.38741,2.466165 0.91182,1.746405 0.18379,4.250446 l -2.75495,9.475521 q -0.82732,2.845502 -2.61872,3.805959 -1.75468,0.940276 -4.34408,0.187422 z m 7.99866,-16.684432 -4.30203,14.796609 1.33739,0.388837 q 1.22357,0.355744 1.90949,-0.09289 0.6942,-0.477094 1.07476,-1.786025 l 2.83768,-9.760071 q 0.34748,-1.195111 0.054,-1.990219 -0.29345,-0.795109 -1.57393,-1.167399 z"
         style="font-weight:bold;font-stretch:condensed;font-family:'DIN Condensed';-inkscape-font-specification:'DIN Condensed,  Bold Condensed'"
         id="path153613" />
      <path
         d="m 181.32736,54.856957 -2.74093,-1.274136 0.28731,-0.618052 q 0.4372,-0.940513 0.29267,-1.824665 -0.10517,-0.898531 -1.15317,-1.385701 -0.56431,-0.262322 -1.01357,-0.209737 -0.44927,0.05258 -0.81414,0.275114 -0.37737,0.249401 -0.67034,0.668747 -0.28048,0.392475 -0.50533,0.876167 -0.26232,0.564308 -0.41033,0.953005 -0.12113,0.401189 -0.0973,0.771728 0.0238,0.370539 0.21948,0.72292 0.22253,0.364873 0.66003,0.829678 l 1.70877,1.807365 q 0.75125,0.774046 1.09071,1.520061 0.35195,0.719143 0.38711,1.487093 -0.004,0.78233 -0.28396,1.665322 -0.26726,0.856121 -0.75443,1.904121 -0.56212,1.209232 -1.29113,2.144809 -0.71653,0.908705 -1.59123,1.384413 -0.91407,0.490088 -2.02758,0.495325 -1.11351,0.0052 -2.43022,-0.606847 -0.99426,-0.462187 -1.69177,-1.21125 -0.69751,-0.749062 -1.02825,-1.654419 -0.33075,-0.905357 -0.33221,-1.886392 0.0379,-0.995416 0.4876,-1.962802 l 0.47468,-1.021128 2.74092,1.274136 -0.39973,0.859898 q -0.34976,0.75241 -0.20712,1.570326 0.18201,0.803536 1.23001,1.290706 0.69867,0.32478 1.16231,0.311558 0.50301,-0.0276 0.89287,-0.303874 0.38986,-0.276273 0.65407,-0.774346 0.30357,-0.512454 0.60337,-1.157377 0.34976,-0.752411 0.52086,-1.261086 0.17111,-0.508676 0.14728,-0.879215 -0.0507,-0.383031 -0.28571,-0.721032 -0.20815,-0.325509 -0.61878,-0.777823 l -1.5869,-1.718036 q -1.43627,-1.54998 -1.50469,-3.019644 -0.0291,-1.484045 0.80787,-3.284457 0.49966,-1.074872 1.24494,-1.904851 0.74529,-0.829978 1.66125,-1.253831 0.88909,-0.436345 1.93636,-0.439694 1.08663,-0.01773 2.29586,0.544391 1.02113,0.474678 1.67928,1.238121 0.68501,0.775934 1.01576,1.681291 0.63651,1.864457 -0.13796,3.530509 z"
         style="font-weight:bold;font-stretch:condensed;font-family:'DIN Condensed';-inkscape-font-specification:'DIN Condensed,  Bold Condensed'"
         id="path153615" />
    </g>
    <path
       style="display:none;fill:none;stroke:#000000;stroke-width:0.264583px;stroke-linecap:butt;stroke-linejoin:miter;stroke-opacity:1"
       d="m 33.576755,198.32493 c 0,0 76.330555,56.13428 177.240805,1.67988"
       id="path10852"
       sodipodi:nodetypes="cc" />
    <path
       style="fill:#c1f168;fill-opacity:1;stroke:none;stroke-width:3;stroke-linecap:butt;stroke-linejoin:miter;stroke-miterlimit:4;stroke-dasharray:none;stroke-opacity:0"
       d="m 83.014258,209.05 c 0,0 6.989392,-10.02147 1.312038,-12.33839 0,0 -15.1754,-10.73908 -23.653398,-22.66035 -1.170143,-1.64539 -3.550816,-0.62802 -3.654122,1.29075 l -1.01642,13.5007 -4.653524,2.75304 c 0,0 -10.745871,-1.52903 -12.286316,-0.85733 -2.14964,0.93735 -2.262852,3.73588 -0.512387,5.49665 l 19.716314,19.83241 15.060275,-0.48439 7.150799,-2.93041 z"
       id="path31900"
       sodipodi:nodetypes="ccssccsscccc" />
    <path
       style="fill:#c1f168;fill-opacity:1;stroke:none;stroke-width:0.264583px;stroke-linecap:butt;stroke-linejoin:miter;stroke-opacity:1"
       d="m 170.2614,209.83885 c 0,0 -6.97917,-10.0286 -1.29946,-12.33972 0,0 15.18635,-10.72359 23.67649,-22.63624 1.17183,-1.64419 3.55145,-0.62438 3.65281,1.29448 l 1.00263,13.50175 4.65071,2.75776 c 0,0 10.74741,-1.51807 12.2872,-0.84479 2.14867,0.93953 2.25904,3.73819 0.50675,5.49717 l -19.73652,19.81231 -15.05978,-0.49977 -7.1478,-2.93769 z"
       id="path34659"
       sodipodi:nodetypes="ccssccsscccc" />
    <path
       style="opacity:1;fill:#fd5e63;fill-opacity:1;stroke:#bb4350;stroke-width:4;stroke-linecap:butt;stroke-linejoin:miter;stroke-miterlimit:4;stroke-dasharray:none;stroke-opacity:1"
       d="m 48.593671,219.67477 c -0.106467,16.55914 107.640359,46.85168 161.603869,1.78846 4.64447,-3.87845 0.42207,-8.596 -3.67766,-14.63612 -3.82388,-5.63369 -6.41097,-15.21774 -13.56431,-12.33654 -13.65972,5.50184 -76.43735,28.03258 -125.889282,1.6132 -3.568153,-1.90627 -9.208826,4.36925 -12.921143,10.3376 -3.712316,5.96832 -5.519058,8.19178 -5.551474,13.2334 z"
       id="path23254"
       sodipodi:nodetypes="sssssss" />
    <ellipse
       style="opacity:1;fill:#fd5e63;fill-opacity:1;fill-rule:evenodd;stroke-width:0.208481"
       id="ellipse18824"
       cx="136.88339"
       cy="131.50134"
       rx="51.480419"
       ry="51.413494" />
    <path
       style="fill:none;fill-opacity:1;stroke:#6fce81;stroke-width:2.75764;stroke-linecap:butt;stroke-linejoin:miter;stroke-miterlimit:4;stroke-dasharray:none;stroke-opacity:1"
       d="m 50.64845,14.64287 c 0.426172,-0.854088 -13.005406,12.86469 -20.118758,20.228909 0,0 38.814728,34.862318 -11.007017,146.968431 0,0 -7.908206,47.18134 35.586955,72.18342 0,0 56.93914,6.0489 74.73261,18.9532 17.79348,-12.9043 74.73264,-18.9532 74.73264,-18.9532 43.4952,-25.00208 35.58698,-72.18342 35.58698,-72.18342 C 190.34009,69.734097 231.44993,35.633612 231.44993,35.633612 L 208.27105,15.404703 c -18.97971,16.936896 -56.51944,2.643672 -78.14406,2.84692 -17.04167,0.160173 -41.649361,18.485754 -79.47854,-3.608753 z"
       id="path5509"
       sodipodi:nodetypes="cccccccccsc" />
    <g
       aria-label="WITH BADGES"
       transform="rotate(-4.3283132,378.87299,-24.367535)"
       id="text12608"
       style="font-size:35.2778px;line-height:1.25;letter-spacing:1.56369px;word-spacing:1.38112px;fill:#4b5864;stroke-width:0.264583">
      <path
         d="m 64.248737,185.16238 -15.530125,20.09235 -2.955317,-1.65398 5.558547,-15.56632 -0.06157,-0.0344 -10.330153,12.89584 -2.955317,-1.65397 9.003799,-23.74487 3.324732,1.86072 -6.217441,14.79329 0.06157,0.0345 10.250218,-12.53631 2.401195,1.34385 -5.421852,15.68325 0.06157,0.0345 9.485414,-13.40904 z"
         style="font-family:'DIN Condensed';-inkscape-font-specification:'DIN Condensed, '"
         id="path153636" />
      <path
         d="m 55.592829,208.27958 9.790473,-23.13116 3.313733,1.40257 -9.790473,23.13115 z"
         style="font-family:'DIN Condensed';-inkscape-font-specification:'DIN Condensed, '"
         id="path153638" />
      <path
         d="m 65.693096,212.28601 7.10847,-20.53562 -3.93377,-1.36169 1.107814,-3.20035 11.267918,3.90043 -1.107813,3.20035 -3.933771,-1.36169 -7.10847,20.53562 z"
         style="font-family:'DIN Condensed';-inkscape-font-specification:'DIN Condensed, '"
         id="path153640" />
      <path
         d="m 75.904552,215.67062 6.068137,-24.37378 3.49175,0.86931 -2.599413,10.44102 4.313338,1.07385 2.599413,-10.44101 3.49175,0.86931 -6.068137,24.37378 -3.49175,-0.86931 2.701684,-10.85181 -4.313338,-1.07386 -2.701684,10.85182 z"
         style="font-family:'DIN Condensed';-inkscape-font-specification:'DIN Condensed, '"
         id="path153642" />
      <path
         d="m 101.1731,220.82068 2.24941,-25.01687 5.23527,0.47073 q 1.72167,0.15481 2.8689,0.78926 1.18238,0.63762 1.87639,1.58553 0.69401,0.9479 0.90598,2.13582 0.25026,1.15595 0.13969,2.38571 l -0.0821,0.91354 q -0.0916,1.01895 -0.33048,1.70587 -0.20373,0.69008 -0.56734,1.18869 -0.68578,0.9301 -1.97872,1.52225 1.21119,0.71105 1.70424,1.92424 0.49306,1.2132 0.31298,3.21596 l -0.12637,1.40544 q -0.29697,3.30279 -2.07119,4.91426 -1.73909,1.61464 -5.2527,1.29871 z m 4.62644,-11.27265 -0.72031,8.01102 1.54598,0.13901 q 1.08922,0.0979 1.71497,-0.16458 0.66088,-0.25936 1.02765,-0.7931 0.36678,-0.53374 0.50655,-1.30042 0.13978,-0.76667 0.22192,-1.68021 0.0853,-0.94867 0.0431,-1.66087 -0.0422,-0.7122 -0.31422,-1.23254 -0.30713,-0.5235 -0.88549,-0.78802 -0.5752,-0.29966 -1.55901,-0.38812 z m 0.90355,-10.04891 -0.61921,6.88667 1.61625,0.14532 q 1.79194,0.16113 2.46824,-0.66357 0.71459,-0.85667 0.86939,-2.57833 0.15165,-1.68654 -0.47525,-2.59299 -0.59176,-0.90329 -2.3837,-1.06441 z"
         style="font-family:'DIN Condensed';-inkscape-font-specification:'DIN Condensed, '"
         id="path153644" />
      <path
         d="m 124.34621,213.19117 -1.81781,-9.09106 -0.0706,4.2e-4 -1.7099,9.11197 z m -8.83778,8.83672 5.46018,-25.15061 2.99856,-0.0178 5.75796,25.0841 -3.59827,0.0213 -1.09031,-5.39113 -4.90353,0.0291 -1.02632,5.40369 z"
         style="font-family:'DIN Condensed';-inkscape-font-specification:'DIN Condensed, '"
         id="path153646" />
      <path
         d="m 132.85579,221.70914 -2.54587,-24.98844 5.29951,-0.53993 q 3.08846,-0.31466 4.83942,1.20905 1.78605,1.52014 2.10071,4.6086 l 1.19069,11.68701 q 0.35757,3.50961 -1.19051,5.36943 -1.51656,1.82115 -4.7103,2.14653 z m 1.3772,-21.98393 1.85934,18.24998 1.64952,-0.16805 q 1.50913,-0.15376 2.06577,-0.95514 0.55307,-0.83647 0.38859,-2.4509 l -1.22645,-12.03797 q -0.15018,-1.47403 -0.82906,-2.22046 -0.67887,-0.74642 -2.2582,-0.58552 z"
         style="font-family:'DIN Condensed';-inkscape-font-specification:'DIN Condensed, '"
         id="path153648" />
      <path
         d="m 145.21013,201.03178 q -0.29605,-1.48778 -0.004,-2.73283 0.29179,-1.24506 1.0053,-2.17837 0.6858,-0.89183 1.64805,-1.47897 0.99685,-0.59403 2.06943,-0.80746 1.07259,-0.21344 2.1863,-0.0394 1.14832,0.16716 2.15789,0.72162 0.98186,0.59595 1.72805,1.63446 0.7462,1.0385 1.04225,2.52628 l 0.24786,1.24558 -3.52914,0.70227 -0.24786,-1.24558 q -0.25475,-1.28018 -1.09838,-1.72379 -0.81592,-0.48509 -1.7847,-0.29231 -0.96878,0.19278 -1.57144,0.96015 -0.57495,0.72589 -0.3202,2.00607 l 2.58874,13.00939 q 0.25475,1.28018 1.07067,1.76527 0.84363,0.4436 1.81241,0.25082 0.96879,-0.19278 1.54373,-0.91867 0.60266,-0.76737 0.34792,-2.04755 l -0.92259,-4.63632 -2.80255,0.55768 -0.61965,-3.11395 6.33169,-1.25995 1.54224,7.75027 q 0.30982,1.55698 0.0112,2.76744 -0.29867,1.21045 -0.98448,2.10228 -0.71351,0.93331 -1.71036,1.52734 -0.96225,0.58714 -2.03483,0.80057 -1.07258,0.21344 -2.2209,0.0463 -1.11372,-0.17405 -2.09557,-0.76999 -1.00957,-0.55447 -1.74888,-1.55838 -0.73931,-1.0039 -1.04914,-2.56088 z"
         style="font-family:'DIN Condensed';-inkscape-font-specification:'DIN Condensed, '"
         id="path153650" />
      <path
         d="m 165.22723,216.35559 -6.98501,-24.12702 10.30143,-2.98236 0.9418,3.25308 -6.84503,1.9817 2.05038,7.08223 5.96398,-1.72663 0.9418,3.25308 -5.96398,1.72663 2.05037,7.08223 6.84503,-1.9817 1.00066,3.4564 z"
         style="font-family:'DIN Condensed';-inkscape-font-specification:'DIN Condensed, '"
         id="path153652" />
      <path
         d="m 183.63652,191.32913 -3.36684,1.26978 -0.28633,-0.75919 q -0.43571,-1.15529 -1.30807,-1.76886 -0.85181,-0.65904 -2.13913,-0.17353 -0.69317,0.26142 -1.02269,0.68733 -0.32952,0.4259 -0.4442,0.92159 -0.10223,0.5287 0.0104,1.12719 0.10015,0.56548 0.32423,1.15963 0.26143,0.69317 0.46872,1.14284 0.2403,0.43722 0.57529,0.72561 0.33499,0.2884 0.79767,0.41553 0.49569,0.11468 1.25545,0.12977 l 2.96056,0.0523 q 1.28412,0.006 2.20137,0.33856 0.90481,0.29972 1.58723,0.90952 0.66187,0.65527 1.17982,1.62873 0.5055,0.94045 0.991,2.22778 0.5602,1.48537 0.74863,2.88473 0.17599,1.36636 -0.14806,2.50656 -0.34461,1.18566 -1.26771,2.13706 -0.9231,0.95139 -2.5405,1.56139 -1.22131,0.4606 -2.43941,0.42986 -1.21811,-0.0307 -2.26362,-0.50361 -1.04552,-0.47287 -1.8811,-1.28883 -0.81502,-0.86142 -1.26318,-2.04972 l -0.47306,-1.25432 3.36685,-1.26979 0.39836,1.05627 q 0.34857,0.92423 1.16303,1.48424 0.83502,0.51455 2.12234,0.029 0.85822,-0.32367 1.23319,-0.72902 0.39553,-0.45079 0.48532,-1.0125 0.0898,-0.56171 -0.11374,-1.20132 -0.18296,-0.68506 -0.48174,-1.47726 -0.34856,-0.92423 -0.63866,-1.49348 -0.2901,-0.56926 -0.62509,-0.85765 -0.36799,-0.27595 -0.85123,-0.35763 -0.45024,-0.0941 -1.17699,-0.12165 l -2.78307,-0.0815 q -2.51467,-0.0696 -3.82161,-1.23564 -1.28638,-1.21149 -2.12046,-3.42305 -0.49795,-1.32033 -0.58302,-2.64557 -0.0851,-1.32524 0.31744,-2.45733 0.36951,-1.11964 1.23904,-2.01313 0.89009,-0.93895 2.37547,-1.49915 1.25431,-0.47305 2.45186,-0.39685 1.23055,0.0637 2.27606,0.53662 2.11593,1.01175 2.88776,3.05826 z"
         style="font-family:'DIN Condensed';-inkscape-font-specification:'DIN Condensed, '"
         id="path153654" />
    </g>
    <path
       style="fill:#ffc2c2;fill-opacity:0.770235;fill-rule:nonzero;stroke:none;stroke-width:0.264583px;stroke-linecap:butt;stroke-linejoin:miter;stroke-opacity:1"
       d="m 178.46575,119.24576 c 0.002,0.006 -4.7809,1.47462 -4.77895,1.48107 1.80328,5.96914 3.59985,16.17939 -0.48625,27.48688 -3.04587,8.42885 -9.23879,16.59127 -18.10096,21.86826 -5.42692,3.15019 -11.57004,5.01331 -17.82123,5.55683 -6.56275,0.57061 -13.02854,-0.327 -18.83737,-2.47652 -6.51997,-2.41268 -11.96328,-6.29233 -16.12824,-10.58171 -5.510243,-5.67485 -8.564341,-11.78003 -10.107285,-16.6765 1.535001,4.87126 4.387851,11.15697 9.591245,17.15017 3.96576,4.56771 9.27749,8.93741 15.89139,11.93535 5.90469,2.67647 12.66256,4.16324 19.75086,4.09797 6.74045,-0.0621 13.63576,-1.53374 19.98902,-4.57531 10.45831,-4.87876 18.6167,-13.43673 23.18285,-23.19734 6.14552,-13.13668 4.95975,-25.85127 2.65458,-33.48177 -0.002,-0.007 -4.79747,1.41986 -4.79966,1.41262 z"
       id="path132261"
       inkscape:path-effect="#path-effect132263;#path-effect132265"
       inkscape:original-d="m 178.46575,119.24576 c -18.43141,14.15735 -9.36456,50.33689 -22.20197,53.05135 -10.18702,2.15404 -59.28655,-27.47487 -64.058315,-26.39304"
       sodipodi:nodetypes="csc" />
  </g>
</svg>
