<?xml version="1.0" encoding="UTF-8" standalone="no"?>
<svg
   width="1015"
   height="1131"
   viewBox="0 0 268.55201 299.24342"
   version="1.1"
   id="svg1370"
   sodipodi:docname="logo_final_animated.svg"
   inkscape:version="1.1.1 (c3084ef, 2021-09-22)"
   inkscape:export-filename="/Users/ryguy/Desktop/cowards_content/server_icon_3.png"
   inkscape:export-xdpi="96"
   inkscape:export-ydpi="96"
   xmlns:inkscape="http://www.inkscape.org/namespaces/inkscape"
   xmlns:sodipodi="http://sodipodi.sourceforge.net/DTD/sodipodi-0.dtd"
   xmlns="http://www.w3.org/2000/svg"
   xmlns:svg="http://www.w3.org/2000/svg">
  <defs
     id="defs1374" />
  <sodipodi:namedview
     id="namedview1372"
     pagecolor="#ffffff"
     bordercolor="#666666"
     borderopacity="1.0"
     inkscape:pageshadow="2"
     inkscape:pageopacity="0.0"
     inkscape:pagecheckerboard="0"
     showgrid="false"
     inkscape:zoom="0.61421558"
     inkscape:cx="461.56432"
     inkscape:cy="436.32888"
     inkscape:window-width="1920"
     inkscape:window-height="1080"
     inkscape:window-x="0"
     inkscape:window-y="0"
     inkscape:window-maximized="0"
     inkscape:current-layer="g1744" />
  <g
     id="g1744"
     transform="translate(3.0153616,5.1691912)"
     inkscape:export-filename="/Users/ryguy/Desktop/cowards_content/server_icon_1.png"
     inkscape:export-xdpi="96"
     inkscape:export-ydpi="96">
    <path
       fill="#4b5864"
       stroke="#4b5864"
       stroke-width="3.175"
       d="M 48.184,2.127 12.783,34.31 c 0,0 47.354,19.77 -10.574,147.58 0,0 -9.195,53.791 41.377,82.296 0,0 66.205,6.896 86.894,21.608 20.688,-14.712 86.893,-21.608 86.893,-21.608 C 267.945,235.681 258.75,181.89 258.75,181.89 200.822,54.08 248.176,34.31 248.176,34.31 L 212.776,2.127 C 190.707,21.437 154.62,7.724 129.476,7.979 111.441,8.161 75.268,22.105 48.184,2.127 Z"
       id="path1338"
       inkscape:export-filename="/Users/ryguy/Desktop/cowards_content/server_icon_5.png"
       inkscape:export-xdpi="96"
       inkscape:export-ydpi="96" />
    <path
       fill="#49c7bc"
       d="m 49.723,14.47 c -0.149,0.013 -2.243,2.086 -4.81,4.667 l 26.718,35.96 c 1.34,1.803 18.498,23.572 17.73,26.047 0,0 0.2,1.791 -1.296,2.994 -0.956,0.767 -3.912,0.246 -3.912,0.246 0,0 -19.16,-22.444 -20.685,-24.173 L 35.593,28.63 a 1792.784,1792.784 0 0 0 -5.989,6.192 c 0,0 6.154,5.584 10.416,19.387 l 0.105,-0.206 c 0.777,-1.52 1.11,-2.832 2.091,-1.88 l 23.935,23.193 c 1.008,0.977 14.056,13.204 14.056,13.204 0,0 0.46,2.039 0.114,2.746 -0.542,1.109 -1.5,1.062 -1.5,1.062 C 77.561,92.994 64.995,82.13 63.96,81.288 L 42.305,63.665 c 0.879,4.8 1.494,10.252 1.653,16.47 L 61.61,91.704 c 0.797,0.522 10.657,6.518 11.116,8.049 0,0 0.517,0.87 0.467,1.964 -0.032,0.698 -0.887,1.35 -0.887,1.35 0,0 -10.522,-5.727 -11.346,-6.152 L 43.915,88.104 a 153.905,153.905 0 0 1 -0.65,9.75 l 11.414,5.557 c 0.827,0.403 11.33,5.169 11.33,5.169 0,0 1.144,1.89 1.363,2.867 0.343,1.531 -0.02,2.091 -0.02,2.091 -0.123,1.516 -9.799,-2.098 -10.57,-2.34 l -14.607,-4.57 a 197.916,197.916 0 0 1 -1.037,6.281 l 8.618,2.8 c 0.92,0.298 12.658,3.64 12.658,3.64 0,0 1.063,2.141 1.17,3.35 0.165,1.893 -0.353,2.717 -0.353,2.717 -0.387,1.998 -11.323,-0.075 -12.203,-0.18 L 38.876,123.79 c -0.373,1.595 -0.773,3.22 -1.193,4.866 l 11.401,1.496 c 0.976,0.128 13.477,1.37 13.477,1.37 0,0 0.94,1.649 0.928,2.645 -0.018,1.56 -0.672,2.317 -0.672,2.317 -0.635,1.722 -12.392,1.435 -13.345,1.464 l -14.468,0.438 a 299.523,299.523 0 0 1 -2.188,7.076 l 14.74,-0.807 c 1.13,-0.061 15.63,-1.338 15.63,-1.338 0,0 0.99,1.793 0.912,3.006 -0.121,1.9 -0.933,2.966 -0.933,2.966 -0.85,2.233 -14.546,4.505 -15.659,4.753 l -19.12,4.249 a 371.026,371.026 0 0 1 -2.135,5.652 l 16.63,-3.856 c 1.561,-0.362 21.54,-5.477 21.54,-5.477 0,0 1.641,1.469 1.714,2.661 0.113,1.869 -0.858,3.117 -0.858,3.117 -0.851,2.385 -19.56,8.246 -21.07,8.783 l -23.483,8.343 a 446,446 0 0 1 -2.128,4.892 c 0,0 -0.319,2.045 -0.473,5.397 l 28.298,-11.29 c 1.665,-0.664 22.908,-9.634 22.908,-9.634 0,0 1.973,1.106 2.195,2.255 0.347,1.8 -0.566,3.212 -0.566,3.212 -0.646,2.497 -20.412,11.94 -22,12.766 L 18.621,200.86 a 77.707,77.707 0 0 0 3.356,15.098 l 28.382,-21.17 c 1.848,-1.378 25.207,-19.411 25.207,-19.411 0,0 3,0.097 3.777,1.044 1.218,1.484 0.654,3.196 0.654,3.196 0.244,2.58 -21.018,20.363 -22.699,21.852 l -30.015,26.594 a 67.107,67.107 0 0 0 4.88,7.563 l 27.52,-26.947 c 1.647,-1.613 22.388,-22.605 22.388,-22.605 0,0 2.986,-0.305 3.883,0.53 1.405,1.308 1.074,3.08 1.074,3.08 0.588,2.524 -18.109,22.988 -19.576,24.689 L 40.861,245.2 a 73.944,73.944 0 0 0 8.313,6.544 l 24.331,-33.148 c 1.365,-1.859 18.43,-25.934 18.43,-25.934 0,0 2.897,-0.785 3.917,-0.106 1.6,1.063 1.56,2.865 1.56,2.865 0.988,2.396 -14.146,25.619 -15.318,27.534 l -20.13,32.908 c 3.278,0.437 7.177,0.991 11.853,1.747 l 16.399,-32.6 c 0.882,-1.755 11.8,-24.386 11.8,-24.386 0,0 2.322,-1.07 3.275,-0.645 1.493,0.666 1.715,2.185 1.715,2.185 1.17,1.872 -8.248,23.514 -8.96,25.289 L 85.133,259.6 c 3.931,0.752 7.982,1.598 11.996,2.536 l 10.005,-32.513 c 0.565,-1.837 7.391,-25.458 7.391,-25.458 0,0 2.135,-1.432 3.169,-1.191 1.62,0.377 2.12,1.795 2.12,1.795 1.515,1.59 -3.985,24 -4.376,25.827 l -7.368,34.398 c 5,1.465 9.657,3.094 13.623,4.89 l 2.706,-35.81 c 0.15,-1.975 1.656,-27.243 1.656,-27.243 0,0 1.696,-2.084 2.71,-2.18 a 2.536,2.536 0 0 1 2.346,1.072 c 1.74,1.068 1.22,24.727 1.231,26.638 l 0.224,39.284 c 3.66,-2 8.23,-3.813 13.273,-5.446 l -4.055,-34.515 c -0.222,-1.889 -3.616,-25.169 -2.025,-26.502 0,0 0.6,-1.331 2.19,-1.437 1.014,-0.067 2.946,1.72 2.946,1.72 0,0 4.566,24.71 4.954,26.637 l 6.278,31.168 c 3.641,-0.93 7.35,-1.79 11.037,-2.561 l -9.451,-31.58 c -0.546,-1.823 -7.935,-24.125 -6.56,-25.867 0,0 0.377,-1.483 1.959,-2.002 1.01,-0.331 3.259,0.945 3.259,0.945 0,0 8.814,23.421 9.534,25.24 l 12.326,31.142 c 4.778,-0.84 9.18,-1.528 12.983,-2.079 l -16.262,-31.43 c -0.926,-1.79 -12.905,-23.51 -12.069,-25.693 0,0 -0.007,-1.66 1.308,-2.602 0.838,-0.602 3.182,0.186 3.182,0.186 0,0 13.538,22.547 14.62,24.288 l 20.968,33.714 0.687,-0.08 a 78.588,78.588 0 0 0 8.86,-5.937 L 190.422,219.23 c -1.34,-1.803 -18.498,-23.572 -17.729,-26.047 0,0 -0.201,-1.791 1.296,-2.994 0.955,-0.767 3.911,-0.246 3.911,-0.246 0,0 19.16,22.445 20.685,24.174 l 23.184,26.265 a 67.114,67.114 0 0 0 7.357,-9.872 L 202.11,204.67 c -1.503,-1.437 -20.632,-18.73 -20.102,-20.879 0,0 -0.37,-1.504 1.005,-2.623 0.877,-0.714 3.866,-0.47 3.866,-0.47 0,0 21.182,17.731 22.863,19.093 l 24.712,20.022 a 74.44,74.44 0 0 0 3.476,-11.419 l -26.792,-16.872 c -1.645,-1.035 -22.277,-13.208 -22.471,-15.5 0,0 -0.74,-1.407 0.055,-2.896 0.506,-0.95 3.014,-1.508 3.014,-1.508 0,0 22.434,12.06 24.202,12.973 l 23.657,12.208 c 0.202,-2.897 0.22,-5.408 0.163,-7.553 l -22.706,-11.787 c -1.589,-0.825 -21.354,-10.27 -22,-12.767 0,0 -0.914,-1.41 -0.566,-3.211 0.222,-1.15 2.194,-2.256 2.194,-2.256 0,0 21.243,8.97 22.909,9.635 l 16.676,6.653 a 390.672,390.672 0 0 1 -4.286,-10.59 l -14.302,-4.075 c -1.325,-0.377 -17.626,-4.27 -18.627,-6.55 0,0 -0.963,-1.138 -1.097,-3.004 -0.086,-1.191 1.102,-2.818 1.102,-2.818 0,0 17.268,3.022 18.614,3.22 l 9.983,1.476 a 315.907,315.907 0 0 1 -1.797,-5.336 l -9.137,-1.398 c -1.127,-0.172 -14.943,-1.524 -15.94,-3.695 0,0 -0.882,-1.01 -1.13,-2.898 -0.158,-1.204 0.709,-3.06 0.709,-3.06 0,0 14.554,0.305 15.685,0.29 l 6.506,-0.078 c -0.536,-1.89 -1.049,-3.756 -1.524,-5.583 l -7.661,-0.232 c -0.953,-0.029 -12.71,0.258 -13.344,-1.463 0,0 -0.655,-0.757 -0.673,-2.318 -0.011,-0.996 0.928,-2.644 0.928,-2.644 0,0 12.501,-1.242 13.477,-1.37 l 5.183,-0.68 a 216.77,216.77 0 0 1 -0.938,-4.504 l -7.419,0.883 c -0.88,0.105 -11.816,2.178 -12.203,0.18 0,0 -0.519,-0.825 -0.353,-2.718 0.106,-1.208 1.17,-3.349 1.17,-3.349 0,0 11.738,-3.343 12.658,-3.641 l 4.413,-1.433 c -0.351,-2.433 -0.64,-4.79 -0.875,-7.081 l -11.308,4.356 c -0.755,0.291 -10.178,4.521 -10.4,3.017 0,0 -0.396,-0.536 -0.153,-2.087 0.156,-0.989 1.177,-2.948 1.177,-2.948 0,0 10.173,-5.433 10.972,-5.888 l 9.055,-5.156 a 129.59,129.59 0 0 1 0.017,-12.536 l -16.05,10.033 c -0.785,0.491 -10.806,7.055 -10.806,7.055 0,0 -0.905,-0.58 -0.994,-1.272 -0.14,-1.086 0.305,-1.996 0.305,-1.996 0.333,-1.563 9.671,-8.343 10.423,-8.928 l 17.636,-13.735 0.327,-0.286 c 0.695,-5.085 1.712,-9.504 2.885,-13.371 L 195.802,75.75 c -1.035,0.843 -13.602,11.707 -14.86,11.041 0,0 -0.96,0.048 -1.501,-1.06 -0.346,-0.708 0.114,-2.748 0.114,-2.748 0,0 13.048,-12.226 14.056,-13.203 l 23.935,-23.194 c 0.981,-0.951 1.314,0.36 2.09,1.88 l 1.17,2.286 c 4.473,-10.757 9.718,-15.166 9.718,-15.166 l -9.139,-8.01 -25.568,28.967 c -1.526,1.728 -20.685,24.174 -20.685,24.174 0,0 -2.957,0.52 -3.912,-0.247 -1.497,-1.202 -1.295,-2.994 -1.295,-2.994 -0.77,-2.475 16.39,-24.244 17.729,-26.046 l 24.036,-32.35 -4.345,-3.808 c -3.466,3.106 -7.556,5.157 -12.05,6.45 l -18.39,28.346 c -1.07,1.647 -14.395,22.95 -14.395,22.95 0,0 -2.425,0.81 -3.325,0.283 -1.411,-0.825 -1.466,-2.359 -1.466,-2.359 -0.958,-1.988 10.767,-22.472 11.67,-24.158 l 12.423,-23.213 c -4.652,0.098 -9.479,-0.238 -14.326,-0.773 l -9.387,24.446 c -0.58,1.51 -7.592,20.925 -7.592,20.925 0,0 -2.146,1.166 -3.178,0.96 -1.617,-0.32 -2.106,-1.492 -2.106,-1.492 -1.502,-1.32 4.174,-19.746 4.58,-21.249 l 6.764,-25.054 c -3.508,-0.534 -6.97,-1.08 -10.3,-1.579 L 141.8,44.85 c -0.273,1.538 -3.373,21.238 -3.373,21.238 0,0 -1.822,1.5 -2.839,1.494 -1.592,-0.01 -2.27,-1.031 -2.27,-1.031 -1.668,-0.977 0.346,-19.495 0.456,-20.995 l 1.99,-27.126 c -2.311,-0.203 -4.51,-0.317 -6.563,-0.297 -2.485,0.023 -5.152,0.458 -7.976,1.075 l 1.954,26.64 c 0.11,1.5 2.124,20.018 0.457,20.995 0,0 -0.678,1.022 -2.271,1.031 -1.016,0.006 -2.84,-1.493 -2.84,-1.493 0,0 -3.099,-19.7 -3.373,-21.239 L 110.996,21.79 c -3.343,0.873 -6.898,1.74 -10.68,2.415 l 6.576,24.357 c 0.406,1.503 6.081,19.928 4.579,21.248 0,0 -0.489,1.172 -2.106,1.493 -1.032,0.205 -3.178,-0.961 -3.178,-0.961 0,0 -7.012,-19.416 -7.591,-20.925 L 89.375,25.403 a 65.276,65.276 0 0 1 -13.6,-0.934 l 13.053,24.39 c 0.902,1.687 12.628,22.17 11.67,24.159 0,0 -0.055,1.534 -1.466,2.36 -0.9,0.526 -3.326,-0.283 -3.326,-0.283 0,0 -13.325,-21.305 -14.393,-22.951 L 60.372,19.867 a 90.071,90.071 0 0 1 -10.65,-5.36 c 0.014,-0.027 0.014,-0.04 0,-0.038 z"
       id="path1340"
       inkscape:export-filename="/Users/ryguy/Desktop/cowards_content/server_icon_5.png"
       inkscape:export-xdpi="96"
       inkscape:export-ydpi="96" />
    <path
       fill="none"
       stroke="#6fce81"
       stroke-opacity="0.572"
       stroke-width="2.798"
       d="m 49.616,12.548 c 0.433,-0.865 -14.724,14.52 -21.954,21.98 0,0 40.954,33.82 -9.679,147.367 0,0 -8.036,47.788 36.166,73.112 0,0 57.866,6.127 75.95,19.197 18.082,-13.07 75.948,-19.197 75.948,-19.197 44.203,-25.324 36.166,-73.112 36.166,-73.112 C 191.58,68.348 233.851,35.425 233.851,35.425 L 208.538,12.828 c -19.289,17.154 -56.174,3.17 -78.15,3.375 -17.32,0.163 -42.328,18.724 -80.772,-3.655 z"
       id="path1342"
       inkscape:export-filename="/Users/ryguy/Desktop/cowards_content/server_icon_5.png"
       inkscape:export-xdpi="96"
       inkscape:export-ydpi="96" />
    <path
       fill="none"
       stroke="#000000"
       stroke-width="0.265"
       d="m 81.467,72.726 c 0,0 51.832,-27.755 96.975,0.668"
       id="path1344"
       inkscape:export-filename="/Users/ryguy/Desktop/cowards_content/server_icon_5.png"
       inkscape:export-xdpi="96"
       inkscape:export-ydpi="96" />
    <ellipse
       cx="127.947"
       cy="136.11099"
       fill="#bb4350"
       fill-rule="evenodd"
       stroke="#4b5864"
       stroke-width="10.351"
       rx="73.989998"
       ry="70.149002"
       id="ellipse1346"
       inkscape:export-filename="/Users/ryguy/Desktop/cowards_content/server_icon_5.png"
       inkscape:export-xdpi="96"
       inkscape:export-ydpi="96" />
    <path
       fill="#c1f168"
       d="m 168.45,66.73 c 0,0 -4.446,7.85 -0.113,9.16 0,0 11.895,6.845 18.95,15.021 0.973,1.129 2.653,0.217 2.596,-1.2 l -0.185,-9.994 3.23,-2.344 c 0,0 8.004,0.381 9.09,-0.219 1.515,-0.837 1.405,-2.902 -0.003,-4.075 l -15.861,-13.215 -11.036,1.396 -5.053,2.648 z M 92.293,66.538 c 0,0 4.445,7.848 0.112,9.159 0,0 -11.895,6.845 -18.95,15.021 -0.973,1.129 -2.653,0.217 -2.596,-1.2 l 0.185,-9.994 -3.23,-2.345 c 0,0 -8.004,0.382 -9.09,-0.218 -1.515,-0.837 -1.405,-2.902 0.004,-4.075 l 15.86,-13.215 11.036,1.396 5.053,2.648 z"
       id="path1348"
       inkscape:export-filename="/Users/ryguy/Desktop/cowards_content/server_icon_5.png"
       inkscape:export-xdpi="96"
       inkscape:export-ydpi="96" />
    <path
       fill="#fd5e63"
       stroke="#bb4350"
       stroke-width="4"
       d="m 70.728,48.688 c 17.177,-12.025 68.809,-32.975 120.188,0.826 1.803,1.186 -1.993,7.147 -4.805,13.348 -2.812,6.202 -4.64,12.643 -9.057,10.727 C 163.544,67.73 134.468,47.128 85.016,73.547 81.448,75.454 79.026,69.5 75.314,63.532 71.602,57.563 66.598,51.58 70.728,48.688 Z"
       id="path1350"
       inkscape:export-filename="/Users/ryguy/Desktop/cowards_content/server_icon_5.png"
       inkscape:export-xdpi="96"
       inkscape:export-ydpi="96" />
    <g
       fill="#4b5864"
       stroke-width="0.265"
       aria-label="COWARDS"
       font-family="'DIN Condensed'"
       font-size="29.633px"
       font-stretch="condensed"
       font-weight="700"
       letter-spacing="0.151"
       style="line-height:1.25"
       word-spacing="0"
       id="g1354"
       inkscape:export-filename="/Users/ryguy/Desktop/cowards_content/server_icon_5.png"
       inkscape:export-xdpi="96"
       inkscape:export-ydpi="96">
      <path
         d="m 93.922,58.558 0.452,1.223 q 0.339,0.917 0.286,1.885 -0.035,0.93 -0.41,1.795 -0.375,0.865 -1.065,1.562 -0.673,0.66 -1.618,1.01 -0.806,0.298 -1.722,0.384 -0.916,0.086 -1.788,-0.224 -0.873,-0.309 -1.636,-1.006 -0.746,-0.735 -1.25,-2.097 l -4.03,-10.895 q -0.36,-0.973 -0.334,-1.93 0.025,-0.957 0.41,-1.794 0.386,-0.838 1.096,-1.48 0.728,-0.68 1.756,-1.06 2.002,-0.74 3.735,0.103 0.848,0.413 1.51,1.18 0.68,0.727 1.061,1.756 l 0.411,1.111 -2.835,1.049 -0.35,-0.945 q -0.308,-0.834 -1.006,-1.27 -0.699,-0.437 -1.505,-0.14 -1.056,0.391 -1.17,1.192 -0.098,0.763 0.272,1.763 l 3.742,10.117 q 0.319,0.862 0.896,1.312 0.605,0.44 1.578,0.08 0.278,-0.103 0.553,-0.3 0.292,-0.234 0.488,-0.56 0.168,-0.314 0.19,-0.765 0.023,-0.45 -0.193,-1.034 l -0.36,-0.973 z m 0.532,-10.739 q -0.323,-1.233 -0.141,-2.291 0.182,-1.059 0.733,-1.877 0.53,-0.783 1.308,-1.323 0.806,-0.548 1.694,-0.781 0.889,-0.233 1.831,-0.143 0.972,0.082 1.846,0.496 0.853,0.45 1.531,1.284 0.678,0.833 1.001,2.066 l 2.825,10.778 q 0.338,1.29 0.148,2.32 -0.19,1.03 -0.72,1.812 -0.551,0.819 -1.357,1.367 -0.777,0.54 -1.666,0.773 -0.889,0.233 -1.86,0.15 -0.943,-0.09 -1.796,-0.54 -0.874,-0.414 -1.545,-1.218 -0.67,-0.805 -1.008,-2.095 z m 5.748,10.012 q 0.278,1.06 0.986,1.426 0.73,0.33 1.533,0.12 0.802,-0.21 1.248,-0.848 0.467,-0.674 0.189,-1.735 l -2.825,-10.778 q -0.278,-1.06 -1.007,-1.39 -0.709,-0.366 -1.512,-0.155 -0.802,0.21 -1.269,0.884 -0.446,0.637 -0.168,1.698 z m 23.546,-20.651 -0.295,21.329 -2.82,0.38 -4.119,-13.26 -0.059,0.009 -0.432,13.872 -2.82,0.38 -5.93,-20.49 3.171,-0.427 3.287,13.072 0.059,-0.008 0.56,-13.59 2.29,-0.31 4.27,13.27 0.06,-0.009 -0.394,-13.79 z m 10.491,13.69 -1.465,-7.648 h -0.06 l -1.498,7.642 z m -7.484,7.363 4.758,-21.089 2.518,0.006 4.667,21.109 -3.023,-0.007 -0.88,-4.535 -4.118,-0.01 -0.899,4.533 z m 19.314,-17.475 -0.883,6.52 1.703,0.23 q 0.793,0.107 1.29,-0.035 0.502,-0.17 0.822,-0.546 0.291,-0.38 0.459,-0.955 0.171,-0.605 0.279,-1.397 0.107,-0.793 0.098,-1.393 -0.005,-0.628 -0.209,-1.104 -0.447,-0.898 -2.003,-1.109 z m -5.445,17.684 2.831,-20.908 4.816,0.652 q 5.286,0.715 4.455,6.853 -0.25,1.85 -1.013,3.062 -0.733,1.217 -2.279,1.815 l 1.938,9.981 -3.171,-0.43 -1.581,-9.304 -1.792,-0.243 -1.208,8.927 z m 12.972,1.99 5.89,-20.26 4.298,1.249 q 2.504,0.728 3.387,2.466 0.912,1.747 0.184,4.25 l -2.755,9.476 q -0.827,2.846 -2.619,3.806 -1.754,0.94 -4.344,0.188 z m 8,-16.685 -4.303,14.797 1.338,0.389 q 1.223,0.356 1.909,-0.093 0.694,-0.477 1.075,-1.786 l 2.837,-9.76 q 0.348,-1.195 0.054,-1.99 -0.293,-0.796 -1.573,-1.168 z m 19.731,11.11 -2.74,-1.274 0.287,-0.618 q 0.437,-0.94 0.292,-1.825 -0.105,-0.898 -1.153,-1.386 -0.564,-0.262 -1.013,-0.21 -0.45,0.053 -0.814,0.276 -0.378,0.25 -0.67,0.669 -0.281,0.392 -0.506,0.876 -0.262,0.564 -0.41,0.953 -0.122,0.4 -0.098,0.771 0.024,0.371 0.22,0.723 0.222,0.365 0.66,0.83 l 1.709,1.807 q 0.75,0.774 1.09,1.52 0.352,0.72 0.387,1.488 -0.004,0.782 -0.284,1.665 -0.267,0.856 -0.754,1.904 -0.562,1.21 -1.291,2.145 -0.717,0.909 -1.591,1.384 -0.914,0.49 -2.028,0.496 -1.114,0.005 -2.43,-0.607 -0.994,-0.463 -1.692,-1.212 -0.697,-0.749 -1.028,-1.654 -0.331,-0.905 -0.332,-1.886 0.037,-0.996 0.487,-1.963 l 0.475,-1.021 2.74,1.274 -0.399,0.86 q -0.35,0.752 -0.207,1.57 0.182,0.804 1.23,1.29 0.699,0.326 1.162,0.312 0.503,-0.027 0.893,-0.304 0.39,-0.276 0.654,-0.774 0.304,-0.512 0.604,-1.157 0.35,-0.753 0.52,-1.261 0.171,-0.509 0.148,-0.88 -0.051,-0.383 -0.286,-0.72 -0.208,-0.326 -0.619,-0.778 l -1.587,-1.718 q -1.436,-1.55 -1.504,-3.02 -0.03,-1.484 0.807,-3.285 0.5,-1.074 1.245,-1.904 0.746,-0.83 1.662,-1.254 0.889,-0.437 1.936,-0.44 1.087,-0.018 2.296,0.544 1.021,0.475 1.68,1.239 0.684,0.775 1.015,1.68 0.636,1.865 -0.138,3.531 z"
         style="-inkscape-font-specification:'DIN Condensed, Bold Condensed'"
         transform="translate(-0.948,-0.812)"
         id="path1352" />
    </g>
    <path
       fill="#c1f168"
       d="m 83.014,209.05 c 0,0 6.99,-10.021 1.312,-12.338 0,0 -15.175,-10.74 -23.653,-22.66 -1.17,-1.646 -3.55,-0.629 -3.654,1.29 l -1.017,13.5 -4.653,2.754 c 0,0 -10.746,-1.53 -12.286,-0.858 -2.15,0.938 -2.263,3.736 -0.513,5.497 l 19.716,19.832 15.06,-0.484 7.152,-2.93 z m 87.247,0.789 c 0,0 -6.979,-10.029 -1.3,-12.34 0,0 15.187,-10.723 23.677,-22.636 1.172,-1.644 3.552,-0.624 3.653,1.294 l 1.003,13.502 4.65,2.758 c 0,0 10.748,-1.518 12.288,-0.845 2.148,0.94 2.259,3.738 0.507,5.497 l -19.737,19.813 -15.06,-0.5 -7.148,-2.938 z"
       id="path1356"
       inkscape:export-filename="/Users/ryguy/Desktop/cowards_content/server_icon_5.png"
       inkscape:export-xdpi="96"
       inkscape:export-ydpi="96" />
    <path
       fill="#fd5e63"
       stroke="#bb4350"
       stroke-width="4"
       d="m 48.594,219.675 c -0.107,16.559 107.64,46.851 161.604,1.788 4.644,-3.878 0.422,-8.596 -3.678,-14.636 -3.824,-5.634 -6.411,-15.218 -13.564,-12.336 -13.66,5.501 -76.438,28.032 -125.89,1.613 -3.568,-1.907 -9.209,4.369 -12.92,10.337 -3.713,5.969 -5.52,8.192 -5.552,13.234 z"
       id="path1358"
       inkscape:export-filename="/Users/ryguy/Desktop/cowards_content/server_icon_5.png"
       inkscape:export-xdpi="96"
       inkscape:export-ydpi="96" />
    <path
       fill="none"
       stroke="#6fce81"
       stroke-width="2.758"
       d="m 50.648,14.643 c 0.427,-0.854 -13.005,12.865 -20.118,20.229 0,0 38.814,34.862 -11.007,146.968 0,0 -7.909,47.182 35.587,72.184 0,0 56.939,6.049 74.732,18.953 17.794,-12.904 74.733,-18.953 74.733,-18.953 C 248.07,229.022 240.162,181.84 240.162,181.84 190.34,69.734 231.45,35.634 231.45,35.634 l -23.179,-20.23 c -18.98,16.938 -56.52,2.644 -78.144,2.848 -17.042,0.16 -41.65,18.485 -79.479,-3.61 z"
       id="path1362"
       inkscape:export-filename="/Users/ryguy/Desktop/cowards_content/server_icon_5.png"
       inkscape:export-xdpi="96"
       inkscape:export-ydpi="96" />
    <g
       fill="#4b5864"
       stroke-width="0.265"
       aria-label="WITH BADGES"
       font-family="'DIN Condensed'"
       font-size="35.278px"
       letter-spacing="1.564"
       style="line-height:1.25"
       word-spacing="1.381"
       id="g1366"
       inkscape:export-filename="/Users/ryguy/Desktop/cowards_content/server_icon_5.png"
       inkscape:export-xdpi="96"
       inkscape:export-ydpi="96">
      <path
         d="m 64.249,185.162 -15.53,20.093 -2.956,-1.654 5.559,-15.567 -0.062,-0.034 -10.33,12.896 -2.955,-1.654 9.004,-23.745 3.324,1.86 -6.217,14.794 0.061,0.035 10.25,-12.537 2.402,1.344 -5.422,15.683 0.062,0.035 9.485,-13.41 z m -8.656,23.118 9.79,-23.132 3.314,1.403 -9.79,23.131 z m 10.1,4.006 7.109,-20.536 -3.934,-1.361 1.108,-3.2 11.268,3.9 -1.108,3.2 -3.934,-1.362 -7.109,20.536 z m 10.212,3.384 6.068,-24.373 3.491,0.87 -2.599,10.44 4.313,1.074 2.6,-10.441 3.492,0.87 -6.069,24.373 -3.491,-0.87 2.701,-10.851 -4.313,-1.074 -2.702,10.852 z m 25.268,5.15 2.25,-25.016 5.235,0.47 q 1.721,0.155 2.869,0.79 1.182,0.637 1.876,1.585 0.694,0.948 0.906,2.136 0.25,1.156 0.14,2.386 l -0.082,0.913 q -0.092,1.02 -0.33,1.706 -0.205,0.69 -0.568,1.189 -0.686,0.93 -1.979,1.522 1.211,0.711 1.704,1.924 0.493,1.214 0.313,3.216 l -0.126,1.406 q -0.297,3.303 -2.071,4.914 -1.74,1.615 -5.253,1.299 z m 4.627,-11.272 -0.72,8.011 1.545,0.14 q 1.09,0.097 1.715,-0.166 0.661,-0.259 1.028,-0.793 0.367,-0.533 0.506,-1.3 0.14,-0.767 0.222,-1.68 0.086,-0.949 0.043,-1.661 -0.042,-0.712 -0.314,-1.233 -0.307,-0.523 -0.885,-0.788 -0.576,-0.3 -1.56,-0.388 z m 0.903,-10.049 -0.62,6.887 1.617,0.145 q 1.792,0.161 2.468,-0.663 0.715,-0.857 0.87,-2.579 0.151,-1.686 -0.475,-2.593 -0.592,-0.903 -2.384,-1.064 z m 17.643,13.692 -1.818,-9.09 h -0.07 l -1.71,9.111 z m -8.838,8.837 5.46,-25.15 3,-0.019 5.757,25.085 -3.598,0.02 -1.09,-5.39 -4.904,0.029 -1.026,5.404 z m 17.348,-0.318 -2.546,-24.99 5.3,-0.54 q 3.088,-0.314 4.839,1.21 1.786,1.52 2.1,4.608 l 1.191,11.687 q 0.358,3.51 -1.19,5.37 -1.517,1.821 -4.71,2.146 z m 1.377,-21.985 1.86,18.25 1.649,-0.168 q 1.509,-0.154 2.066,-0.955 0.553,-0.836 0.388,-2.45 l -1.226,-12.039 q -0.15,-1.474 -0.83,-2.22 -0.678,-0.747 -2.258,-0.586 z m 10.977,1.307 q -0.296,-1.488 -0.004,-2.733 0.292,-1.245 1.005,-2.178 0.686,-0.892 1.648,-1.48 0.997,-0.593 2.07,-0.807 1.073,-0.213 2.186,-0.04 1.149,0.168 2.158,0.722 0.982,0.596 1.728,1.635 0.746,1.038 1.042,2.526 l 0.248,1.246 -3.529,0.702 -0.248,-1.246 q -0.254,-1.28 -1.098,-1.723 -0.816,-0.486 -1.785,-0.293 -0.969,0.193 -1.571,0.96 -0.575,0.726 -0.32,2.006 l 2.588,13.01 q 0.255,1.28 1.071,1.765 0.844,0.444 1.812,0.251 0.97,-0.193 1.544,-0.919 0.603,-0.767 0.348,-2.047 l -0.923,-4.637 -2.802,0.558 -0.62,-3.114 6.332,-1.26 1.542,7.75 q 0.31,1.557 0.011,2.768 -0.298,1.21 -0.984,2.102 -0.714,0.934 -1.71,1.528 -0.963,0.587 -2.035,0.8 -1.073,0.214 -2.221,0.046 -1.114,-0.174 -2.096,-0.77 -1.01,-0.554 -1.749,-1.558 -0.739,-1.004 -1.049,-2.56 z m 20.017,15.324 -6.985,-24.127 10.302,-2.983 0.941,3.253 -6.845,1.982 2.05,7.082 5.965,-1.726 0.942,3.253 -5.964,1.726 2.05,7.083 6.845,-1.982 1,3.456 z m 18.41,-25.026 -3.367,1.269 -0.287,-0.76 q -0.435,-1.155 -1.308,-1.768 -0.852,-0.66 -2.139,-0.174 -0.693,0.262 -1.023,0.688 -0.33,0.426 -0.444,0.921 -0.102,0.529 0.01,1.127 0.1,0.566 0.325,1.16 0.261,0.693 0.469,1.143 0.24,0.437 0.575,0.726 0.335,0.288 0.798,0.415 0.495,0.115 1.255,0.13 l 2.96,0.052 q 1.285,0.006 2.202,0.339 0.905,0.3 1.587,0.91 0.662,0.654 1.18,1.628 0.505,0.94 0.991,2.228 0.56,1.485 0.749,2.884 0.176,1.367 -0.148,2.507 -0.345,1.186 -1.268,2.137 -0.923,0.951 -2.54,1.561 -1.222,0.461 -2.44,0.43 -1.218,-0.03 -2.264,-0.503 -1.045,-0.473 -1.88,-1.29 -0.816,-0.86 -1.264,-2.049 l -0.473,-1.254 3.367,-1.27 0.398,1.056 q 0.349,0.925 1.163,1.485 0.835,0.514 2.123,0.029 0.858,-0.324 1.233,-0.73 0.395,-0.45 0.485,-1.012 0.09,-0.562 -0.114,-1.201 -0.183,-0.685 -0.481,-1.478 -0.349,-0.924 -0.64,-1.493 -0.29,-0.57 -0.624,-0.858 -0.368,-0.276 -0.851,-0.357 -0.45,-0.094 -1.177,-0.122 l -2.783,-0.081 q -2.515,-0.07 -3.822,-1.236 -1.286,-1.212 -2.12,-3.423 -0.498,-1.32 -0.584,-2.646 -0.085,-1.325 0.318,-2.457 0.37,-1.12 1.239,-2.013 0.89,-0.94 2.375,-1.5 1.255,-0.472 2.452,-0.396 1.23,0.064 2.276,0.536 2.116,1.012 2.888,3.059 z"
         style="-inkscape-font-specification:'DIN Condensed, '"
         transform="rotate(-4.328,378.873,-24.368)"
         id="path1364" />
    </g>
    <g
       id="g1493"
       inkscape:export-filename="/Users/ryguy/Desktop/cowards_content/server_icon_5.png"
       inkscape:export-xdpi="96"
       inkscape:export-ydpi="96"
       transform="rotate(40.562842,136.88299,131.50102)">
      <ellipse
         cx="136.883"
         cy="131.50101"
         fill="#fd5e63"
         fill-rule="evenodd"
         rx="51.48"
         ry="51.412998"
         id="ellipse1360" />
      <path
         fill="#ffc2c2"
         fill-opacity="0.77"
         d="m 178.466,119.246 c 0.002,0.006 -4.781,1.474 -4.78,1.48 1.804,5.97 3.6,16.18 -0.485,27.488 -3.046,8.429 -9.24,16.591 -18.101,21.868 -5.427,3.15 -11.57,5.013 -17.822,5.557 -6.562,0.57 -13.028,-0.327 -18.837,-2.477 -6.52,-2.412 -11.963,-6.292 -16.128,-10.581 -5.51,-5.675 -8.565,-11.78 -10.108,-16.677 a 48.46,48.46 0 0 0 9.592,17.15 c 3.965,4.568 9.277,8.938 15.891,11.936 5.905,2.676 12.663,4.163 19.751,4.098 6.74,-0.063 13.636,-1.534 19.989,-4.576 10.458,-4.879 18.617,-13.436 23.183,-23.197 6.145,-13.137 4.96,-25.851 2.654,-33.482 -0.002,-0.007 -4.797,1.42 -4.8,1.413 z"
         id="path1368" />
    </g>
  </g>
</svg>
